<?xml version="1.0" standalone="no"?>
<!DOCTYPE svg PUBLIC "-//W3C//DTD SVG 20010904//EN"
 "http://www.w3.org/TR/2001/REC-SVG-20010904/DTD/svg10.dtd">
<svg version="1.0" xmlns="http://www.w3.org/2000/svg"
 width="600.000000pt" height="192.000000pt" viewBox="0 0 600.000000 192.000000"
 preserveAspectRatio="xMidYMid meet">

<g transform="translate(0.000000,192.000000) scale(0.100000,-0.100000)"
fill="#000000" stroke="none">
<path d="M1085 1906 c-41 -18 -61 -43 -74 -91 -15 -54 -15 -766 0 -819 6 -22
24 -52 39 -68 25 -24 36 -28 85 -28 49 0 60 4 85 28 48 49 51 80 48 500 -3
418 -4 424 -58 464 -34 25 -88 31 -125 14z"/>
<path d="M1599 1907 c-108 -31 -148 -81 -157 -197 l-5 -68 -37 -11 c-45 -13
-59 -29 -66 -73 -8 -44 24 -85 71 -94 l35 -6 0 -224 c0 -245 5 -273 55 -312
20 -16 41 -22 80 -22 64 0 100 24 115 78 5 20 10 137 10 260 l0 222 45 0 c51
0 99 20 109 45 3 9 6 31 6 49 0 48 -35 76 -104 83 -55 6 -56 6 -56 38 0 44 20
58 81 56 41 0 55 4 75 24 13 13 24 34 24 45 0 36 -28 77 -63 93 -47 23 -161
30 -218 14z"/>
<path d="M356 1896 c-22 -8 -47 -23 -57 -33 -18 -18 -282 -749 -294 -815 -15
-77 48 -148 132 -148 81 0 113 32 143 143 l13 47 163 0 163 0 21 -69 c27 -93
59 -121 137 -121 51 0 58 3 94 39 32 32 39 45 39 79 0 47 -257 790 -288 831
-10 14 -32 32 -48 40 -42 21 -170 25 -218 7z m154 -430 l48 -156 -99 0 c-54 0
-99 3 -99 7 0 17 93 313 97 309 3 -2 26 -74 53 -160z"/>
<path d="M5690 1843 c-58 -7 -130 -25 -130 -33 0 -5 5 -12 11 -16 18 -10 4
-130 -30 -269 -75 -304 -93 -476 -57 -547 10 -21 35 -48 55 -60 31 -20 50 -23
131 -23 104 0 166 20 215 69 27 27 34 81 15 116 -10 19 -12 18 -46 -5 -41 -28
-92 -40 -129 -31 -52 13 -55 85 -14 282 l22 102 87 4 c116 5 160 34 176 116
l6 31 -33 -9 c-19 -6 -73 -10 -121 -10 l-87 0 25 88 c27 100 30 154 9 172 -18
15 -72 27 -105 23z"/>
<path d="M3293 1640 c-56 -28 -142 -107 -202 -185 -22 -29 -22 -29 -17 -5 31
129 29 171 -10 197 -27 17 -125 14 -177 -6 -25 -10 -26 -13 -16 -32 19 -37 -6
-193 -76 -471 -19 -76 -35 -151 -35 -168 0 -62 70 -92 165 -71 52 12 53 13 45
40 -11 41 -3 75 46 179 106 227 264 437 264 351 0 -30 -36 -203 -71 -341 -16
-64 -29 -134 -29 -156 0 -67 53 -93 151 -73 l54 11 0 59 c0 51 7 73 57 172 85
173 206 349 239 349 15 0 10 -41 -35 -255 -51 -244 -48 -298 23 -331 30 -15
44 -15 90 -6 29 6 64 19 77 27 22 14 23 17 9 38 -32 49 -28 103 20 342 50 244
53 301 18 336 -71 71 -228 2 -349 -155 -32 -41 -60 -73 -62 -71 -2 2 1 20 7
42 14 49 14 139 1 164 -14 25 -62 49 -98 49 -16 0 -56 -13 -89 -30z"/>
<path d="M4324 1661 c-187 -45 -365 -304 -368 -536 -2 -155 39 -225 139 -233
45 -4 64 0 109 22 58 28 138 107 195 192 l33 49 -5 -70 c-10 -124 25 -182 115
-192 33 -4 58 1 93 16 42 18 46 24 40 43 -17 49 -17 244 -1 339 19 106 59 246
87 301 l19 37 -52 16 c-64 19 -121 19 -156 1 -25 -13 -34 -12 -82 5 -57 19
-112 22 -166 10z m104 -135 c15 -8 38 -26 51 -39 l23 -26 -42 -78 c-59 -107
-151 -240 -199 -287 -35 -35 -42 -38 -57 -25 -14 12 -16 27 -11 104 7 104 28
187 65 263 45 92 104 123 170 88z"/>
<path d="M5325 1651 c-43 -20 -143 -118 -194 -190 -35 -50 -37 -48 -16 29 35
131 14 166 -99 164 -39 -1 -83 -6 -98 -12 -25 -10 -26 -14 -17 -44 14 -48 5
-103 -64 -385 -59 -244 -60 -252 -43 -277 23 -37 61 -49 127 -42 84 8 85 9 84
76 0 53 7 72 67 192 68 135 147 240 189 253 14 5 31 0 49 -14 l29 -21 34 48
c48 66 66 105 73 156 5 36 3 47 -15 65 -26 26 -54 26 -106 2z"/>
<path d="M2140 1646 c-70 -20 -121 -50 -166 -98 -53 -55 -82 -112 -101 -202
-37 -180 43 -351 200 -422 85 -38 208 -45 285 -16 53 21 54 21 85 1 63 -38
151 -17 184 44 16 28 18 66 21 284 4 290 -3 345 -49 389 -26 25 -38 29 -84 29
-43 0 -59 -5 -76 -22 l-22 -22 -41 21 c-51 26 -171 33 -236 14z m187 -200 c16
-14 35 -42 41 -64 18 -58 15 -194 -4 -242 -38 -94 -166 -93 -215 2 -32 62 -32
185 -1 250 37 76 122 102 179 54z"/>
<path d="M248 636 c-153 -55 -236 -168 -246 -337 l-5 -89 2879 2 2879 3 51 27
c66 35 147 124 169 185 9 26 19 87 22 136 l6 87 -2859 0 c-2326 -1 -2866 -3
-2896 -14z"/>
</g>
</svg>
