<svg width="70" height="51" viewBox="0 0 70 51" fill="none" xmlns="http://www.w3.org/2000/svg">
<rect y="0.0478516" width="70" height="50" rx="4" fill="white"/>
<path fill-rule="evenodd" clip-rule="evenodd" d="M39.3069 32.2832L37.7668 35.3156L36.2268 32.2832H34.571V39.1568H36.2562V35.7203C36.2562 35.7203 37.0834 37.1698 37.2074 37.3862C37.3314 37.6025 37.543 37.7148 37.7667 37.7148C37.9907 37.7148 38.2025 37.6025 38.3265 37.3862C38.4504 37.1698 39.2777 35.7203 39.2777 35.7203V39.1568H40.9628V32.2832H39.3069Z" fill="#595A59"/>
<path fill-rule="evenodd" clip-rule="evenodd" d="M42.3765 39.156V32.2822H47.0378V33.7886H44.0614V34.9363H46.604V36.444H44.0614V37.6515H47.0378V39.156H42.3765Z" fill="#595A59"/>
<path fill-rule="evenodd" clip-rule="evenodd" d="M52.6028 38.5011C52.0152 39.1088 51.3603 39.2721 50.6098 39.2721C49.8106 39.2721 49.2033 39.004 48.7032 38.5011C47.9806 37.7765 48.0094 36.7325 48.0094 35.7009C48.0094 34.668 47.9806 33.6328 48.7032 32.9076C49.2033 32.4061 49.7829 32.1367 50.6098 32.1367C52.3709 32.1367 53.1228 33.2843 53.2857 34.4146H51.5923C51.4563 33.8926 51.1865 33.6411 50.6098 33.6411C50.3015 33.6411 50.0698 33.7777 49.9453 33.9417C49.7906 34.1441 49.6951 34.4456 49.6951 35.7009C49.6951 36.9551 49.7906 37.2751 49.9453 37.4777C50.0698 37.644 50.3015 37.7674 50.6098 37.7674C50.966 37.7674 51.2061 37.6618 51.3603 37.4968C51.5531 37.3038 51.6212 36.9604 51.6212 36.7002V36.6033H50.6098V35.1918H53.2959V36.1481C53.2959 37.2604 53.1228 37.971 52.6028 38.5011Z" fill="#595A59"/>
<path fill-rule="evenodd" clip-rule="evenodd" d="M56.1611 36.757L56.7914 34.7663L57.4218 36.757H56.1611ZM57.4412 32.2822H56.1416L53.6481 39.156H55.3809L55.7177 38.1323H57.8653L58.202 39.156H59.9348L57.4412 32.2822Z" fill="#595A59"/>
<path fill-rule="evenodd" clip-rule="evenodd" d="M12.6817 35.9797H10.8133V38.5H12.6817C13.5292 38.5 14.059 38.0074 14.059 37.2348C14.059 36.4625 13.5292 35.9797 12.6817 35.9797ZM12.6048 32.9379H10.8133V35.3231H12.6048C13.3656 35.3231 13.953 34.9464 13.953 34.1256C13.953 33.3048 13.3656 32.9379 12.6048 32.9379ZM12.7492 39.1566H10.0813V32.2812H12.6625C13.8567 32.2812 14.685 32.9668 14.685 34.116C14.685 34.8402 14.2516 35.4099 13.6737 35.6224C14.3287 35.8638 14.791 36.4334 14.791 37.2542C14.791 38.5 13.9627 39.1566 12.7492 39.1566Z" fill="#595A59"/>
<path fill-rule="evenodd" clip-rule="evenodd" d="M18.0941 33.3337L16.8035 36.9645H19.3654L18.0941 33.3337ZM20.1262 39.1566L19.5772 37.6019H16.582L16.033 39.1566H15.2529L17.7762 32.2812H18.3926L20.9063 39.1566H20.1262Z" fill="#595A59"/>
<path fill-rule="evenodd" clip-rule="evenodd" d="M26.0009 39.1565L22.3604 33.6427V39.1565H21.6284V32.2812H22.3218L25.9624 37.7757V32.2812H26.6943V39.1565H26.0009Z" fill="#595A59"/>
<path fill-rule="evenodd" clip-rule="evenodd" d="M32.5592 39.1565L30.4692 35.4968L29.0246 37.2348V39.1565H28.2926V32.2812H29.0246V36.2306L32.2221 32.2812H33.1178L30.9605 34.9368L33.426 39.1565H32.5592Z" fill="#595A59"/>
<path fill-rule="evenodd" clip-rule="evenodd" d="M37.5317 10.0723L35.0081 15.7538L39.0043 24.751L45.5231 10.0723H37.5317Z" fill="#949594"/>
<path fill-rule="evenodd" clip-rule="evenodd" d="M45.523 10.0723H37.5316L45.2811 27.522H53.2738L45.523 10.0723Z" fill="#595A59"/>
<path fill-rule="evenodd" clip-rule="evenodd" d="M32.4869 10.0723H24.4955L31.0141 24.751L35.0105 15.7538L32.4869 10.0723Z" fill="#EC952D"/>
<path fill-rule="evenodd" clip-rule="evenodd" d="M24.4956 10.0723L16.7449 27.522H24.7377L32.487 10.0723H24.4956Z" fill="#F9C623"/>
<path fill-rule="evenodd" clip-rule="evenodd" d="M35.0093 15.7539L31.0142 24.7513C31.7111 26.2638 33.2388 27.3087 35.0093 27.3087C36.7799 27.3087 38.3075 26.2638 39.0042 24.7513L35.0093 15.7539Z" fill="#E3672A"/>
</svg>
