<?xml version="1.0" standalone="no"?>
<!DOCTYPE svg PUBLIC "-//W3C//DTD SVG 20010904//EN"
 "http://www.w3.org/TR/2001/REC-SVG-20010904/DTD/svg10.dtd">
<svg version="1.0" xmlns="http://www.w3.org/2000/svg"
 width="600.000000pt" height="217.000000pt" viewBox="0 0 600.000000 217.000000"
 preserveAspectRatio="xMidYMid meet">

<g transform="translate(0.000000,217.000000) scale(0.100000,-0.100000)"
fill="#000000" stroke="none">
<path d="M929 1985 c-160 -25 -296 -66 -436 -130 -91 -42 -86 -35 -144 -204
-122 -358 -125 -727 -8 -1076 62 -185 60 -182 159 -222 335 -135 711 -168
1051 -93 107 24 232 63 325 101 l72 30 32 122 c63 236 73 318 74 582 1 264 -9
355 -64 564 -43 163 -39 158 -153 203 -307 121 -635 165 -908 123z m532 -74
c119 -24 216 -52 337 -99 108 -41 99 -28 143 -207 86 -352 78 -750 -23 -1093
-25 -84 -22 -82 -177 -136 -229 -80 -509 -112 -745 -87 -131 15 -340 66 -456
113 l-85 34 -27 72 c-79 204 -111 378 -111 592 1 193 24 332 89 529 l47 143
65 29 c144 65 292 108 442 129 104 14 390 4 501 -19z"/>
<path d="M1045 1786 c-91 -42 -145 -123 -153 -227 -6 -87 19 -142 117 -264 40
-49 81 -106 91 -125 30 -58 52 -183 65 -364 9 -121 13 -149 14 -96 2 107 19
294 32 349 18 73 53 135 136 239 42 54 85 117 96 141 58 131 -22 305 -166 358
-18 6 -66 12 -107 12 -59 1 -86 -4 -125 -23z"/>
<path d="M690 1364 c-68 -29 -130 -111 -130 -171 0 -47 44 -126 95 -171 45
-40 67 -49 194 -82 52 -14 141 -89 105 -90 -40 0 -172 39 -230 68 -33 17 -81
46 -109 66 -58 42 -65 37 -65 -49 0 -74 22 -122 70 -149 28 -17 60 -22 170
-27 145 -6 162 -10 245 -64 31 -19 60 -35 67 -35 19 0 3 281 -21 372 -39 151
-120 261 -234 318 -67 33 -105 37 -157 14z"/>
<path d="M1505 1352 c-111 -53 -200 -173 -241 -327 -18 -69 -32 -365 -17 -365
5 0 30 13 56 30 97 61 104 63 253 70 159 7 196 20 226 80 18 36 23 102 12 159
l-6 31 -42 -36 c-52 -45 -182 -107 -267 -128 -104 -25 -111 -22 -57 29 35 31
60 45 90 50 115 18 195 66 242 148 50 87 39 166 -32 228 -74 66 -127 73 -217
31z"/>
<path d="M705 525 c-48 -48 -19 -115 50 -115 29 0 37 5 46 26 11 31 12 30 -24
39 -17 5 -27 3 -27 -4 0 -6 5 -11 10 -11 6 0 10 -7 10 -15 0 -18 -31 -20 -48
-3 -17 17 -15 54 3 71 17 17 51 12 59 -9 7 -18 26 -18 26 0 0 18 -38 46 -63
46 -10 0 -29 -11 -42 -25z"/>
<path d="M1556 532 c-2 -4 -7 -25 -11 -47 -3 -22 -9 -52 -11 -67 -4 -21 -2
-28 10 -28 9 0 16 8 16 19 0 23 46 37 66 20 34 -28 30 1 -7 54 -39 55 -53 66
-63 49z m33 -51 c8 -14 7 -20 -4 -25 -11 -4 -15 2 -15 19 0 30 6 32 19 6z"/>
<path d="M837 513 c-3 -5 -8 -33 -12 -64 -8 -61 8 -92 20 -39 9 39 22 38 42
-5 9 -19 23 -35 30 -35 17 0 16 5 -2 39 -13 27 -13 29 5 34 13 3 20 14 20 31
0 21 -7 27 -37 35 -45 13 -60 14 -66 4z m73 -37 c0 -19 -9 -24 -31 -19 -10 3
-19 13 -19 23 0 13 6 16 25 12 14 -2 25 -10 25 -16z"/>
<path d="M1407 492 c-10 -10 -17 -30 -17 -44 0 -34 36 -78 64 -78 24 0 56 28
56 48 0 17 -20 15 -26 -2 -16 -42 -64 -15 -64 35 0 34 23 48 50 31 22 -13 34
-4 19 15 -16 19 -63 16 -82 -5z"/>
<path d="M962 433 l3 -68 39 -3 c21 -2 42 0 47 5 5 5 11 34 15 66 6 48 4 57
-9 57 -12 0 -17 -13 -19 -52 -3 -49 -5 -53 -28 -53 -24 0 -25 2 -22 58 2 46
-1 57 -13 57 -13 0 -15 -12 -13 -67z"/>
<path d="M1090 420 c0 -56 3 -70 15 -70 9 0 15 9 15 25 0 20 5 25 24 25 27 0
56 24 56 45 0 21 -41 45 -77 45 l-33 0 0 -70z m76 29 c7 -12 -12 -29 -33 -29
-7 0 -13 9 -13 20 0 22 34 28 46 9z"/>
<path d="M1265 423 c4 -37 9 -70 10 -72 2 -2 26 1 52 5 49 9 63 27 47 62 -3 9
-7 28 -8 42 -1 23 -5 25 -55 28 l-53 3 7 -68z m75 33 c0 -7 -11 -16 -25 -18
-19 -4 -25 -1 -25 13 0 14 7 19 25 19 15 0 25 -6 25 -14z m10 -62 c0 -9 -11
-14 -30 -14 -36 0 -42 27 -7 32 28 5 37 1 37 -18z"/>
<path d="M4440 1735 c-6 -14 -10 -30 -10 -36 0 -5 -68 -9 -157 -8 -176 0 -233
-10 -343 -64 -208 -101 -419 -463 -420 -719 -1 -225 127 -390 353 -455 92 -27
263 -40 368 -29 l66 7 67 180 c37 100 66 183 63 185 -3 3 -33 -3 -68 -12 -88
-24 -259 -24 -313 -1 -103 45 -156 125 -156 234 0 80 17 120 73 177 140 140
408 174 575 74 18 -11 35 -19 36 -17 2 2 38 84 79 181 l75 177 -132 72 c-72
40 -134 74 -139 76 -4 2 -12 -8 -17 -22z"/>
<path d="M2557 1560 l-87 -169 38 -3 38 -3 -106 -468 -106 -467 335 0 c249 0
349 4 386 14 135 36 274 143 336 259 26 50 33 76 37 138 5 94 -12 153 -68 226
l-39 52 48 35 c190 140 198 428 14 517 -44 21 -67 23 -273 30 -124 4 -279 8
-345 8 l-120 1 -88 -170z m597 -95 c44 -44 38 -158 -10 -210 -22 -24 -28 -25
-144 -25 -66 0 -120 4 -120 9 0 15 50 223 56 233 3 4 50 8 104 8 76 0 102 -4
114 -15z m-129 -435 c54 -12 85 -50 85 -102 0 -52 -32 -119 -72 -153 -28 -24
-35 -25 -155 -25 l-125 0 6 28 c4 15 21 80 38 145 l31 117 76 0 c42 0 94 -5
116 -10z"/>
<path d="M4923 1563 c-43 -82 -79 -154 -81 -160 -2 -8 7 -13 22 -13 14 0 26
-2 26 -4 0 -2 -95 -208 -211 -457 -116 -250 -213 -460 -216 -467 -4 -10 37
-12 198 -10 l203 3 41 110 40 110 163 3 162 2 0 -122 0 -123 217 2 c170 2 218
5 216 15 0 7 -25 293 -54 636 l-54 622 -297 0 -297 0 -78 -147z m347 -407 l0
-215 -110 -3 c-61 -2 -110 -2 -110 -1 0 5 215 433 217 433 2 0 3 -96 3 -214z"/>
</g>
</svg>
