<svg width="58" height="17" viewBox="0 0 58 17" fill="none" xmlns="http://www.w3.org/2000/svg">
<path fill-rule="evenodd" clip-rule="evenodd" d="M5.35192 12.7386L7.72753 15.6804H1.84596L5.35192 12.7386ZM4.60489 11.8299L0.00402812 15.6894L0.00214167 6.19729L4.60489 11.8299ZM15.675 2.27186C15.675 2.27186 14.6649 1.79373 13.4916 1.86356C12.1501 1.94256 11.0279 2.45701 10.3827 3.13584C9.97674 3.5623 9.52796 4.08256 9.30253 4.64756C8.97561 5.46492 8.90581 6.54494 8.90581 6.54494C8.90581 6.54494 8.43665 6.14674 7.84883 4.98641C7.16537 3.63681 6.97842 2.81927 6.8858 1.88658C6.80336 1.0681 6.93277 0.258789 6.93277 0.258789H15.675V2.27186ZM15.675 4.96283V10.9479C15.675 10.9479 15.1315 11.1567 14.6882 11.1567C14.2448 11.1567 13.4899 11.091 12.6131 10.6089C11.7426 10.1308 11.2608 9.55229 10.8873 9.0281C10.5085 8.49493 10.1958 7.75582 10.1028 7.22321C10.0281 6.79711 9.9475 5.73432 10.3827 4.87053C10.6189 4.40176 11.2527 3.59825 12.4731 3.55257C13.4678 3.51438 14.0194 3.77591 14.525 4.05336C15.4871 4.58241 15.675 4.96283 15.675 4.96283ZM6.15574 10.5277L7.73262 9.21325C7.23007 8.57131 7.09727 8.32943 6.53548 7.50065C5.9603 6.6524 5.4785 5.71916 5.0665 4.62416C4.62055 3.438 4.51283 2.77209 4.56207 1.88658C4.62375 0.759951 4.87993 0.258789 4.87993 0.258789H-0.00012207L0.00214167 2.88891C0.00214167 2.88891 3.73769 7.57029 6.15574 10.5277ZM10.6613 15.6761H15.675V12.0205C15.675 12.0205 14.4314 12.5909 13.6231 12.637C13.1418 12.665 12.6747 12.6836 11.9211 12.4831C11.0833 12.2605 10.6074 12.0435 9.83092 11.4031C9.20726 10.8893 8.49418 10.1308 8.49418 10.1308L6.90806 11.4532C7.64396 12.3533 8.18745 13.0086 8.35383 13.1849C9.06917 13.9409 9.37232 14.2187 9.85412 14.4881C10.3357 14.7581 11.9449 14.7434 11.9449 14.7434L10.6613 15.6761Z" fill="#E94E0F"/>
<path fill-rule="evenodd" clip-rule="evenodd" d="M53.5928 12.4244C53.5928 13.4837 53.7356 15.2247 52.5494 15.6486V15.7192H57.0547V15.6486C55.8692 15.2015 56.0115 13.4837 56.0115 12.4244V3.5531C56.0115 2.49442 55.8692 0.752988 57.0547 0.30593V0.235352H52.5494V0.30593C53.7589 0.752988 53.5928 2.47083 53.5928 3.5531V12.4244ZM37.073 3.5531L45.2064 13.7896C46.2495 15.1306 46.985 15.9075 48.6685 16.4719V3.27078C48.6685 1.95319 48.6685 1.01171 49.9018 0.30593V0.235352H45.728V0.30593C46.985 1.01171 46.9608 1.95319 46.9608 3.27078V12.1893L38.2826 1.31762L37.9502 0.846968C37.7846 0.658822 37.6899 0.541253 37.595 0.25894V0.235352H34.1324V0.30593C35.3656 1.01171 35.3656 1.95319 35.3656 3.27078V12.6603C35.3656 13.9777 35.3656 14.9188 34.1092 15.6486V15.7192H38.3064V15.6486C37.0494 14.9188 37.073 13.9777 37.073 12.6603V3.5531ZM23.8152 6.47133V1.85922L25.4036 1.6941C26.8266 1.55294 28.3439 2.40025 28.3439 4.02412C28.3439 5.95369 26.1386 6.47133 24.5977 6.47133H23.8152ZM23.8152 13.8366V8.02406L25.4747 7.93008C27.5615 7.81232 29.7904 8.80098 29.7904 11.0834C29.7904 13.3189 27.8228 14.213 25.8779 14.0249L23.8152 13.8366ZM21.3962 12.401C21.3962 13.4837 21.5387 15.2015 20.3527 15.6486V15.7192H24.2653C26.0437 15.7192 27.9175 15.7899 29.577 14.9898C31.1658 14.2366 32.4227 12.6833 32.4227 10.8713C32.4227 8.56565 30.6913 7.15353 28.5572 6.70609C29.909 6.11807 30.9283 5.22395 30.9283 3.64726C30.9283 1.55294 29.103 0.235352 25.9731 0.235352H20.3527V0.30593C21.5626 0.752988 21.3962 2.47083 21.3962 3.52951V12.401Z" fill="#005B6A"/>
</svg>
