<svg width="70" height="51" viewBox="0 0 70 51" fill="none" xmlns="http://www.w3.org/2000/svg">
<rect y="0.0478516" width="70" height="50" rx="4" fill="#00529C"/>
<path fill-rule="evenodd" clip-rule="evenodd" d="M20.7512 21.7393H24.0875C25.4385 21.7393 26.4457 22.337 26.4457 23.5954C26.4457 24.5181 25.9788 25.0319 25.1678 25.3042V25.3249C26.1345 25.5247 26.6333 26.049 26.6333 26.9398C26.6333 28.6913 25.1051 29.058 23.8063 29.058H20.7512V21.7393ZM22.6837 24.6333H23.2246C23.8585 24.6333 24.5136 24.476 24.5136 23.8568C24.5136 23.1866 23.8898 23.1231 23.2448 23.1231H22.6837V24.6333ZM22.6837 27.6742H23.2562C23.9623 27.6742 24.6999 27.5692 24.6999 26.8246C24.6999 26.0283 23.9417 25.9543 23.2765 25.9543H22.6837V27.6742Z" fill="white"/>
<path fill-rule="evenodd" clip-rule="evenodd" d="M29.1703 21.7393H31.5399L34.3356 29.058H32.2153L31.6753 27.4961H28.9524L28.3805 29.058H26.4164L29.1703 21.7393ZM30.3556 23.2495H30.3338L29.399 26.1122H31.2176L30.3556 23.2495Z" fill="white"/>
<path fill-rule="evenodd" clip-rule="evenodd" d="M34.6047 21.7393H37.0677L39.5205 26.7097H39.5407L39.51 21.7393H41.2773V29.058H38.8764L36.3398 24.0566H36.3199L36.3819 29.058H34.6047V21.7393Z" fill="white"/>
<path fill-rule="evenodd" clip-rule="evenodd" d="M41.9333 21.7393H43.8661V24.7284H43.887L46.0687 21.7393H48.3975L45.7157 25.1468L48.6053 29.058H46.1414L43.887 25.7344H43.8661V29.058H41.9333V21.7393Z" fill="white"/>
<path fill-rule="evenodd" clip-rule="evenodd" d="M51.0018 21.7393H54.3381C55.6888 21.7393 56.6973 22.337 56.6973 23.5954C56.6973 24.5181 56.2304 25.0319 55.4193 25.3042V25.3249C56.3857 25.5247 56.8846 26.049 56.8846 26.9398C56.8846 28.6913 55.3567 29.058 54.0582 29.058H51.0018V21.7393ZM52.9352 24.6333H53.4752C54.1094 24.6333 54.7636 24.476 54.7636 23.8568C54.7636 23.1866 54.1407 23.1231 53.4967 23.1231H52.9352V24.6333ZM52.9352 27.6742H53.5071C54.2132 27.6742 54.9515 27.5692 54.9515 26.8246C54.9515 26.0283 54.1929 25.9543 53.5277 25.9543H52.9352V27.6742Z" fill="white"/>
<path fill-rule="evenodd" clip-rule="evenodd" d="M57.3129 21.7393H60.7634C62.0518 21.7393 63.102 22.3262 63.102 23.5852C63.102 24.5602 62.6446 25.2103 61.7095 25.4302V25.451C62.3317 25.6192 62.3741 26.1745 62.7379 27.0659L63.4449 29.058H61.4289L61.0129 27.7377C60.6178 26.4793 60.3683 26.1639 59.6512 26.1639H59.2456V29.058H57.3129V21.7393ZM59.2456 24.7801H59.7552C60.3787 24.7801 61.1689 24.7587 61.1689 23.9305C61.1689 23.2495 60.4926 23.1231 59.7552 23.1231H59.2456V24.7801Z" fill="white"/>
<mask id="mask0_9047_2562" style="mask-type:alpha" maskUnits="userSpaceOnUse" x="4" y="18" width="62" height="15">
<path fill-rule="evenodd" clip-rule="evenodd" d="M4 32.7536H65.9102V18.0479H4V32.7536Z" fill="white"/>
</mask>
<g mask="url(#mask0_9047_2562)">
<path fill-rule="evenodd" clip-rule="evenodd" d="M63.9774 29.058H65.9102V21.7393H63.9774V29.058Z" fill="white"/>
<path fill-rule="evenodd" clip-rule="evenodd" d="M16.3401 18.0479H6.22334C4.99536 18.0479 3.99988 19.0771 3.99988 20.347V20.3713V30.4551C3.99988 31.7125 4.97701 32.7348 6.18917 32.7536H16.3347C17.563 32.7536 18.5588 31.7243 18.5588 30.4551L18.5636 20.347C18.5636 19.0771 17.5684 18.0479 16.3401 18.0479ZM7.42601 31.5753L6.87402 31.5814C6.20594 31.5814 5.66439 31.0276 5.66439 30.3443L5.66122 30.247V20.9119L5.6647 20.4092C5.68969 19.748 6.18759 19.2156 6.83986 19.2156H7.96187C8.97854 19.2156 9.8032 20.1076 9.8032 21.1602C9.8032 21.6804 9.60107 22.1527 9.27367 22.4961L6.41092 25.4269L9.094 28.1834C9.44006 28.5431 9.64915 29.016 9.64915 29.534C9.64915 30.6616 8.65367 31.5753 7.42601 31.5753ZM15.6745 31.566L10.6722 31.5638C10.6722 31.5638 11.2507 30.3025 11.2507 29.5219C11.2507 28.5702 10.935 27.7197 10.4412 27.157L8.73023 25.3972L10.4767 23.5768C10.9964 23.0837 11.3418 22.2086 11.3418 21.2119C11.3418 20.4226 11.1254 19.7234 10.7772 19.2156H11.9893C13.0063 19.2156 13.831 20.1076 13.831 21.1602C13.831 21.6804 13.6292 22.1527 13.3018 22.4961L10.4937 25.3963L16.3259 31.3966C16.1411 31.514 15.908 31.566 15.6745 31.566ZM16.8962 29.6926L12.7166 25.395L14.7072 23.3537C15.1127 22.8427 15.3696 22.0726 15.3696 21.2119C15.3696 20.4175 15.1501 19.7014 14.7986 19.1933L15.6897 19.2201C16.3578 19.2201 16.8994 19.7748 16.8994 20.4577L16.8962 29.6926Z" fill="white"/>
</g>
</svg>
