<svg width="70" height="50" viewBox="0 0 70 50" fill="none" xmlns="http://www.w3.org/2000/svg">
<rect width="70" height="50" rx="4" fill="white"/>
<path fill-rule="evenodd" clip-rule="evenodd" d="M11.2866 19.1476C11.9505 19.0394 12.6316 19.052 13.2986 19.1186C13.917 19.2463 14.5409 19.389 15.1084 19.6751C16.2566 20.2229 17.234 21.111 17.8853 22.2043C18.4253 23.2146 18.7968 24.348 18.7412 25.5056C18.7569 27.8821 17.2512 30.1464 15.1185 31.1567C13.736 31.8143 12.1276 31.9044 10.6502 31.5439C9.65087 31.2367 8.68682 30.7397 7.95868 29.9763C7.26503 29.3328 6.74147 28.513 6.40914 27.6305C5.97571 26.5449 5.93652 25.3379 6.12071 24.1944C6.45774 22.4959 7.50722 20.9385 8.99249 20.0356C9.68379 19.5802 10.4785 19.3098 11.2866 19.1476ZM10.3994 22.1973C9.89933 22.2482 9.35303 22.4238 9.07636 22.8752C8.77069 23.3077 8.7388 23.8485 8.7085 24.3624C8.70602 24.4045 8.70354 24.4465 8.70092 24.4883C8.69469 24.6179 8.68312 24.7473 8.67155 24.8768L8.67155 24.8768C8.6482 25.138 8.62484 25.3993 8.64528 25.6624C8.66051 25.84 8.67126 26.0183 8.68201 26.1965V26.1965C8.70888 26.6419 8.73576 27.0875 8.8326 27.5247C8.95252 28.0757 9.44865 28.5028 9.99574 28.6031C11.0153 28.787 12.054 28.7708 13.0865 28.7547C13.181 28.7533 13.2755 28.7518 13.3699 28.7505C13.7924 28.727 14.2148 28.6839 14.6326 28.6172C15.2581 28.5357 15.8106 28.0263 15.9133 27.3992C16.0928 26.6304 16.1249 25.8372 16.0716 25.0526C15.9713 24.5494 15.6155 24.0956 15.1319 23.9114C14.914 23.8061 14.6723 23.8068 14.4353 23.8074C14.3935 23.8075 14.3518 23.8076 14.3105 23.8072C13.8442 23.8077 13.3779 23.8075 12.9117 23.8072H12.9116C12.0957 23.8068 11.2799 23.8063 10.4644 23.8103C10.3707 23.812 10.2832 23.78 10.1965 23.7482C10.1643 23.7364 10.1322 23.7247 10.1 23.7147C10.0976 23.5391 10.1039 23.2765 10.3398 23.2718C10.9541 23.258 11.569 23.2621 12.1838 23.2661H12.1839C12.9936 23.2715 13.8033 23.2769 14.6114 23.2413C14.5237 22.8337 14.2752 22.4081 13.8472 22.2952C13.4608 22.1918 13.0611 22.1393 12.6637 22.1024C12.5504 22.101 12.4369 22.0989 12.3233 22.0967H12.3233C11.6795 22.0844 11.0329 22.072 10.3994 22.1973ZM14.776 25.6208C14.5699 25.5652 14.323 25.6467 14.2509 25.8591C14.2056 26.1036 14.2782 26.3392 14.3502 26.5732C14.3805 26.6715 14.4106 26.7696 14.432 26.8678C14.4555 26.8816 14.4907 26.9019 14.5259 26.9223C14.5612 26.9427 14.5965 26.9631 14.6201 26.9768C14.7008 26.9298 14.7831 26.8874 14.8685 26.8506C14.8777 26.6438 14.9276 26.4448 14.9774 26.2459C14.9995 26.1577 15.0216 26.0695 15.0402 25.9806C15.0018 25.834 14.9054 25.7 14.776 25.6208Z" fill="#01ACD7"/>
<path fill-rule="evenodd" clip-rule="evenodd" d="M26.7937 21.1005C26.1894 20.8638 25.5185 20.8904 24.8852 20.9688C23.5152 21.1804 22.3128 22.226 21.9068 23.5514C21.7226 24.0765 21.7266 24.6432 21.7752 25.1911C21.939 26.5925 22.9932 27.823 24.3311 28.2517C25.2795 28.5386 26.3736 28.548 27.2491 28.0346C27.3634 27.9714 27.4673 27.8932 27.5712 27.8151L27.5712 27.8151L27.5712 27.8151L27.5712 27.8151L27.5712 27.8151C27.6681 27.7421 27.7651 27.6692 27.8706 27.6083L27.8723 27.6811C27.8852 28.2588 27.8999 28.9121 27.4615 29.3483C27.1676 29.7072 26.7232 29.8961 26.2741 29.9651C25.303 30.143 24.2762 29.8115 23.5544 29.1468C23.3939 29.3103 23.2257 29.4664 23.0576 29.6225C22.7857 29.8752 22.5137 30.1277 22.2744 30.4111C23.03 31.1259 23.987 31.6416 25.0247 31.7788C26.0389 31.9065 27.13 31.8446 28.0337 31.3234C28.8002 30.8978 29.4037 30.1712 29.6404 29.324C29.7873 28.9018 29.7853 28.4508 29.7834 28.0095V28.0095L29.7831 27.9351C29.7823 25.5986 29.7823 23.263 29.7831 20.9265C29.4158 20.9219 29.0485 20.9221 28.6813 20.9224C28.416 20.9225 28.1508 20.9227 27.8855 20.921C27.8857 20.9852 27.8861 21.0494 27.8864 21.1135V21.1136C27.8876 21.3221 27.8888 21.5307 27.884 21.7393C27.5571 21.472 27.1958 21.2361 26.7937 21.1005ZM24.3867 23.1368C24.701 22.8577 25.118 22.7511 25.5248 22.6908C26.3344 22.5677 27.2452 22.9385 27.6598 23.6635C27.827 23.9572 27.8201 24.2892 27.8132 24.6181V24.6181C27.8108 24.7333 27.8084 24.848 27.8134 24.9606C27.8816 25.6519 27.3432 26.2617 26.7263 26.4968C25.9809 26.7774 25.0616 26.7963 24.411 26.2782C23.436 25.5469 23.4164 23.8782 24.3867 23.1368ZM43.446 20.9226C42.6356 20.9171 41.7906 21.1593 41.2067 21.744C41.2016 21.6692 41.1967 21.5946 41.1918 21.52C41.1835 21.3914 41.1751 21.263 41.1652 21.135C40.5272 21.1271 39.8892 21.1248 39.2512 21.135C39.2521 23.0694 39.252 25.0037 39.2518 26.9381C39.2517 28.3889 39.2516 29.8397 39.252 31.2905C39.7003 31.3194 40.1497 31.3168 40.5989 31.3143H40.5989C40.8079 31.3132 41.0168 31.312 41.2255 31.314C41.2401 30.4177 41.2369 29.521 41.2336 28.6242C41.2325 28.318 41.2314 28.0117 41.231 27.7054C42.6387 28.8239 44.8795 28.7008 46.1454 27.4178C47.5232 26.036 47.6024 23.5733 46.2755 22.1312C45.5771 21.3286 44.5049 20.885 43.446 20.9226ZM41.3235 23.832C41.5296 23.212 42.1598 22.8421 42.7719 22.7206C43.4029 22.5928 44.1083 22.7519 44.5958 23.1814C45.4219 23.9323 45.4282 25.3753 44.6491 26.1614C43.8677 26.9177 42.4851 26.9036 41.7084 26.1473C41.3776 25.8549 41.2044 25.3972 41.2334 24.9598C41.2399 24.8445 41.2368 24.7275 41.2337 24.6104C41.2267 24.3454 41.2197 24.0798 41.3235 23.832ZM33.528 21.019C34.6418 20.7948 35.8605 20.9296 36.8301 21.5496C37.5676 21.9948 38.1288 22.7167 38.3796 23.5404C38.7237 24.6228 38.5693 25.8612 37.925 26.8033C37.2847 27.7525 36.1913 28.334 35.0626 28.443C34.3674 28.49 33.6487 28.4665 32.9911 28.2133C31.9016 27.8473 30.9878 26.9483 30.6664 25.8377C30.3215 24.7968 30.4814 23.6055 31.0724 22.6837C31.6195 21.8216 32.5365 21.233 33.528 21.019ZM33.9944 22.7308C33.7169 22.8099 33.4575 22.9479 33.2302 23.1242C32.4432 23.7442 32.2512 24.97 32.8116 25.8001C33.452 26.8558 35.1042 27.0643 35.9711 26.1802C36.3951 25.7907 36.5965 25.2091 36.5401 24.6393C36.5879 23.3758 35.1865 22.3577 33.9944 22.7308ZM52.1883 20.9696C51.0479 20.8199 49.8127 20.979 48.8666 21.6758C48.3204 22.11 47.8532 22.7073 47.7607 23.4174C48.0331 23.464 48.3032 23.5229 48.5733 23.5818L48.5733 23.5818C48.9252 23.6586 49.2771 23.7353 49.634 23.785C49.7884 23.165 50.3261 22.672 50.957 22.5701C51.3654 22.4995 51.7902 22.5207 52.1875 22.6414C52.5348 22.7543 52.7989 23.1344 52.6468 23.4965C52.3636 23.7548 51.9783 23.8329 51.6113 23.9072C51.5639 23.9168 51.5169 23.9264 51.4704 23.9362L51.2793 23.9634C50.3476 24.095 49.379 24.2318 48.5861 24.7702C47.6055 25.456 47.6016 27.0698 48.5085 27.8191C49.257 28.4626 50.3112 28.5363 51.2501 28.4116C51.8999 28.2901 52.5543 28.0088 52.969 27.4734C52.9713 27.6055 52.9713 27.7376 52.9713 27.8697C52.9713 28.0019 52.9713 28.1342 52.9737 28.2666C53.1167 28.2664 53.2597 28.266 53.4028 28.2655L53.403 28.2655C53.8567 28.2641 54.3108 28.2626 54.7654 28.2698C54.7672 27.3843 54.7669 26.4991 54.7667 25.6139C54.7665 24.9502 54.7663 24.2864 54.767 23.6227C54.774 23.0843 54.5773 22.5599 54.281 22.1163C53.7998 21.4407 52.9831 21.0997 52.1883 20.9696ZM49.721 26.3338C49.6175 26.0885 49.8174 25.8463 50.0172 25.7256C50.4203 25.5034 50.874 25.4206 51.3269 25.3378C51.8726 25.2382 52.417 25.1387 52.8702 24.796C52.8659 24.9036 52.8694 25.0163 52.8728 25.1305V25.1306C52.8846 25.5163 52.8969 25.9198 52.6139 26.2076C52.0668 26.7531 51.2337 26.8535 50.4977 26.8064C50.192 26.7884 49.7899 26.6826 49.721 26.3338ZM55.5543 21.1295C55.3436 21.1299 55.1329 21.1303 54.9222 21.1303C55.4782 22.292 56.0465 23.448 56.6149 24.604C57.1481 25.6886 57.6814 26.7733 58.2046 27.863C57.9475 28.4284 57.6679 28.9835 57.3883 29.5386C57.0927 30.1253 56.7972 30.7119 56.5281 31.3108C56.7546 31.3099 56.9811 31.3116 57.2077 31.3134C57.7115 31.3172 58.2155 31.3211 58.7188 31.2952C60.3702 27.9108 62.0201 24.5264 63.6684 21.1405C62.9277 21.1217 62.1878 21.1248 61.4479 21.1373C60.7378 22.6963 60.0191 24.2521 59.2965 25.8048C59.0834 25.3447 58.868 24.8856 58.6527 24.4266C58.3009 23.6766 57.9492 22.9268 57.6074 22.1727C57.5527 22.0499 57.4923 21.9296 57.432 21.8093C57.3214 21.5886 57.2109 21.368 57.1348 21.1326C56.608 21.1276 56.0812 21.1286 55.5543 21.1295Z" fill="#010101"/>
</svg>
