<?xml version="1.0" standalone="no"?>
<!DOCTYPE svg PUBLIC "-//W3C//DTD SVG 20010904//EN"
 "http://www.w3.org/TR/2001/REC-SVG-20010904/DTD/svg10.dtd">
<svg version="1.0" xmlns="http://www.w3.org/2000/svg"
 width="1200.000000pt" height="420.000000pt" viewBox="0 0 1200.000000 420.000000"
 preserveAspectRatio="xMidYMid meet">

<g transform="translate(0.000000,420.000000) scale(0.100000,-0.100000)"
fill="#000000" stroke="none">
<path d="M0 4083 c1 -112 2 -116 14 -80 32 88 95 151 183 183 36 12 32 13 -79
14 l-118 0 0 -117z"/>
<path d="M11790 4191 c100 -31 170 -101 201 -201 4 -15 8 22 8 93 l1 117 -117
-1 c-71 0 -108 -4 -93 -8z"/>
<path d="M400 3957 c-50 -16 -143 -112 -158 -163 -9 -30 -12 -173 -12 -513 l0
-471 689 0 689 0 7 38 c20 105 114 228 226 295 190 112 1058 334 1764 451 823
137 1557 197 2397 197 828 0 1567 -61 2383 -197 692 -115 1526 -326 1750 -442
125 -66 230 -195 251 -309 l6 -33 689 0 690 0 -3 494 -3 493 -33 49 c-37 54
-88 94 -141 112 -48 17 -11139 15 -11191 -1z"/>
<path d="M5535 3559 c-1186 -40 -2507 -251 -3410 -546 -179 -58 -232 -93 -271
-178 l-24 -50 0 -680 c0 -458 4 -693 11 -719 16 -57 100 -137 173 -165 325
-121 1059 -298 1641 -395 813 -135 1489 -190 2340 -190 620 0 967 18 1540 80
833 90 1701 264 2317 464 212 68 279 115 308 215 8 29 10 230 8 725 l-3 685
-28 48 c-32 53 -89 95 -175 127 -118 45 -361 115 -617 180 -1186 301 -2531
442 -3810 399z m1250 -359 c953 -48 1892 -162 2725 -331 284 -58 353 -84 398
-152 l27 -41 3 -563 c2 -539 2 -566 -17 -608 -23 -52 -83 -99 -155 -120 -145
-43 -783 -159 -1206 -219 -1707 -243 -3297 -248 -5015 -15 -562 76 -1274 211
-1359 257 -54 30 -100 85 -117 141 -7 24 -9 218 -7 571 3 595 -1 562 73 633
46 45 86 59 285 101 881 187 2009 319 3041 356 279 10 1043 4 1324 -10z"/>
<path d="M3358 2755 c-157 -29 -310 -60 -340 -70 -161 -52 -291 -145 -325
-233 -28 -73 -24 -165 12 -230 85 -157 313 -177 393 -34 l22 40 -54 16 c-83
24 -128 91 -111 165 7 34 56 86 104 111 78 39 335 110 349 96 9 -10 -244 -634
-282 -695 -125 -200 -351 -301 -504 -225 -65 32 -126 101 -148 166 l-16 50
-39 -38 c-71 -70 -90 -154 -46 -210 132 -169 398 -210 622 -97 62 32 79 45
284 216 193 161 251 198 301 195 31 -3 35 -6 38 -34 3 -25 -47 -170 -143 -416
-7 -17 2 -18 103 -18 l110 0 57 148 c97 249 116 292 138 307 28 20 63 19 71
-1 11 -29 6 -53 -34 -156 -49 -125 -59 -182 -36 -225 20 -40 62 -73 92 -73 14
0 92 34 174 75 l150 75 10 -27 c32 -89 68 -116 159 -121 78 -5 128 8 171 45
28 23 30 23 36 6 13 -43 21 -48 75 -48 46 0 78 11 209 73 85 40 160 72 167 72
6 0 28 -22 48 -49 109 -149 334 -203 501 -121 90 44 157 113 202 207 36 76 37
81 37 191 l0 113 90 28 c50 15 91 24 93 20 2 -5 -40 -125 -92 -267 -53 -143
-96 -262 -96 -266 0 -4 48 -5 107 -4 l108 3 80 207 c46 120 90 218 104 233 31
32 76 34 84 3 7 -24 -6 -62 -91 -288 l-59 -155 110 -3 c61 -1 114 1 117 5 4 4
43 99 85 211 83 214 108 255 154 250 41 -5 39 -50 -8 -178 -44 -119 -51 -177
-26 -235 14 -36 46 -55 90 -55 12 0 91 34 174 75 l152 75 10 -28 c16 -41 57
-90 89 -107 63 -33 209 -10 249 38 18 22 31 21 31 -1 0 -32 33 -52 86 -52 38
0 67 9 129 41 144 74 223 147 337 309 70 99 103 130 140 130 45 0 43 -29 -6
-132 -121 -250 -87 -348 120 -348 85 0 171 25 247 71 26 16 50 29 53 29 3 0
24 -16 46 -34 56 -48 115 -66 218 -66 87 0 147 14 233 56 l37 18 28 -27 c38
-37 73 -47 156 -47 123 0 233 47 316 134 34 36 34 38 16 52 -27 20 -42 18 -79
-10 -81 -62 -169 -82 -202 -46 -27 30 -16 89 51 266 l58 154 52 0 51 0 30 83
30 82 -48 3 c-27 2 -49 6 -49 10 0 4 29 83 65 177 36 93 65 175 65 182 0 10
-25 13 -94 13 l-94 0 -26 -67 c-14 -38 -45 -122 -69 -188 l-44 -120 -50 -3
-51 -3 -25 -67 c-14 -37 -28 -75 -32 -84 -6 -16 -1 -18 44 -18 28 0 51 -2 51
-5 0 -8 -100 -256 -117 -289 -54 -108 -185 -168 -299 -137 -46 12 -94 46 -94
65 0 8 30 31 67 52 83 49 169 133 208 204 39 73 42 168 7 217 -33 47 -115 70
-188 54 -104 -24 -207 -118 -271 -249 -36 -73 -38 -81 -39 -180 l0 -105 -55
-28 c-94 -49 -169 -35 -169 33 0 38 52 168 91 230 28 44 30 51 22 100 l-8 53
-55 5 c-58 6 -88 18 -110 45 -12 14 -6 23 41 71 l53 54 -34 0 c-53 0 -101 17
-132 47 -15 14 -29 25 -31 22 -78 -102 -101 -146 -112 -214 -7 -39 -21 -87
-30 -106 -30 -59 -101 -152 -162 -211 -82 -81 -183 -120 -183 -72 0 7 41 122
90 254 50 132 90 245 90 251 0 7 -29 10 -86 8 -76 -4 -88 -7 -105 -27 l-19
-24 -26 21 c-19 15 -41 21 -74 21 -99 0 -206 -61 -296 -169 -56 -68 -144 -228
-144 -263 0 -36 -19 -54 -91 -88 -124 -57 -132 -24 -46 207 69 184 74 237 28
284 -22 22 -39 29 -68 29 -45 0 -122 -35 -176 -78 l-39 -31 -22 41 c-27 51
-77 81 -127 75 -50 -6 -152 -54 -180 -83 -30 -32 -39 -30 -39 9 0 40 -8 53
-41 66 -37 14 -82 1 -254 -73 -169 -72 -146 -74 -210 14 -41 58 -126 117 -203
140 -234 72 -474 -71 -532 -319 -11 -47 -10 -105 2 -219 3 -21 -5 -27 -62 -48
-73 -27 -125 -31 -133 -10 -3 7 68 211 159 451 90 241 164 442 164 446 0 5
-42 9 -94 9 l-94 0 -16 -42 c-9 -24 -42 -113 -74 -198 l-58 -155 -86 4 c-148
6 -244 -34 -347 -144 -69 -74 -125 -181 -144 -273 l-12 -63 -69 -31 c-75 -33
-98 -30 -104 10 -2 11 24 93 57 181 82 216 83 285 5 317 -59 25 -144 -2 -231
-73 l-42 -34 -21 40 c-38 76 -101 96 -192 61 -31 -11 -116 -59 -188 -106 -72
-48 -134 -84 -137 -81 -3 3 63 178 146 389 83 211 151 387 151 391 0 10 7 11
-312 -48z m2263 -510 c93 -33 164 -101 213 -205 27 -58 31 -75 31 -155 0 -80
-4 -97 -31 -155 -37 -79 -78 -128 -142 -169 -181 -116 -417 -48 -515 149 -153
305 130 645 444 535z m3260 -240 c-29 -55 -123 -145 -150 -145 -58 0 11 133
98 191 40 26 46 28 60 14 14 -14 13 -20 -8 -60z m-4135 41 c69 -51 -72 -335
-182 -370 -15 -4 -28 -1 -39 10 -55 55 50 289 159 355 37 23 37 23 62 5z
m2799 -64 c-1 -123 -160 -337 -224 -302 -42 22 -38 85 10 187 60 127 149 209
194 179 16 -11 20 -25 20 -64z"/>
<path d="M5420 2207 c-91 -26 -173 -97 -214 -186 -30 -66 -30 -206 1 -273 30
-66 96 -133 162 -165 46 -23 69 -28 131 -28 93 0 167 33 230 101 66 72 85 123
85 229 0 78 -4 97 -28 146 -32 66 -100 132 -162 160 -57 25 -148 32 -205 16z
m192 -71 c96 -46 152 -139 152 -251 0 -112 -54 -203 -150 -251 -53 -26 -174
-26 -225 -1 -50 25 -104 81 -131 136 -32 64 -31 167 1 233 26 55 105 130 153
146 47 16 156 9 200 -12z"/>
<path d="M5455 2111 c-105 -27 -175 -116 -175 -226 0 -129 96 -228 220 -228
126 0 220 97 220 228 0 64 -15 106 -55 153 -49 58 -141 90 -210 73z m108 -65
c44 -18 95 -78 103 -121 32 -171 -156 -283 -280 -167 -72 67 -75 174 -8 246
50 53 120 69 185 42z"/>
<path d="M230 2100 l0 -580 685 0 685 0 0 580 0 580 -685 0 -685 0 0 -580z"/>
<path d="M10400 2100 l0 -580 685 0 685 0 0 580 0 580 -685 0 -685 0 0 -580z"/>
<path d="M1 118 l-1 -118 113 1 c111 1 112 1 71 15 -77 28 -148 106 -175 194
-4 15 -8 -22 -8 -92z"/>
<path d="M11982 184 c-16 -59 -99 -144 -162 -167 l-45 -15 113 -1 112 -1 0
115 c0 63 -1 115 -3 115 -2 0 -8 -21 -15 -46z"/>
</g>
</svg>
