<svg width="70" height="51" viewBox="0 0 70 51" fill="none" xmlns="http://www.w3.org/2000/svg">
<rect y="0.0478516" width="70" height="50" rx="4" fill="#003D79"/>
<path fill-rule="evenodd" clip-rule="evenodd" d="M5.06328 26.5282C5.06328 25.6315 5.04749 24.879 5.00012 24.208H6.64349L6.72054 25.3608H6.76665C7.13912 24.7516 7.82028 24.0312 9.09086 24.0312C10.0826 24.0312 10.8572 24.6088 11.182 25.4727H11.2139C11.4778 25.0406 11.7866 24.7208 12.1426 24.4959C12.5614 24.1922 13.0419 24.0312 13.6616 24.0312C14.9162 24.0312 16.1859 24.9113 16.1859 27.4082V32.0008H14.327V27.6967C14.327 26.4007 13.8939 25.6315 12.9803 25.6315C12.3285 25.6315 11.8477 26.1125 11.6476 26.6729C11.6006 26.8643 11.5542 27.1046 11.5542 27.327V32.0008H9.69465V27.488C9.69465 26.4007 9.27702 25.6315 8.39375 25.6315C7.68102 25.6315 7.20133 26.2085 7.03049 26.7515C6.95249 26.9447 6.92123 27.1682 6.92123 27.3918V32.0008H5.06328V26.5282Z" fill="white"/>
<path fill-rule="evenodd" clip-rule="evenodd" d="M23.4285 30.1296C23.4285 30.8333 23.4594 31.5203 23.537 32.0017H21.8167L21.6932 31.1378H21.6462C21.1817 31.7465 20.3916 32.1779 19.4156 32.1779C17.897 32.1779 17.0453 31.0426 17.0453 29.8577C17.0453 27.8887 18.7333 26.8974 21.5222 26.9133V26.7847C21.5222 26.2725 21.3206 25.4249 19.9884 25.4249C19.2444 25.4249 18.4695 25.6651 17.9586 26.0006L17.5862 24.7215C18.145 24.3687 19.1219 24.0322 20.3139 24.0322C22.7317 24.0322 23.4285 25.6175 23.4285 27.313V30.1296ZM21.5687 28.1935C20.221 28.1612 18.9354 28.4652 18.9354 29.6496C18.9354 30.417 19.4156 30.7697 20.02 30.7697C20.7782 30.7697 21.3369 30.2575 21.5068 29.6976C21.5529 29.5536 21.5687 29.3929 21.5687 29.2654V28.1935Z" fill="white"/>
<path fill-rule="evenodd" clip-rule="evenodd" d="M24.7459 26.5282C24.7459 25.6315 24.7289 24.879 24.6837 24.208H26.3555L26.449 25.3761H26.4948C26.8205 24.7688 27.6416 24.0312 28.8962 24.0312C30.2135 24.0312 31.5768 24.9113 31.5768 27.3763V32.0008H29.6715V27.6009C29.6715 26.4799 29.2687 25.6315 28.2305 25.6315C27.4713 25.6315 26.9448 26.1917 26.7428 26.7841C26.6819 26.9606 26.6658 27.2011 26.6658 27.4236V32.0008H24.7459V26.5282Z" fill="white"/>
<path fill-rule="evenodd" clip-rule="evenodd" d="M39.8385 21.0771V29.8083C39.8385 30.6083 39.869 31.474 39.9001 32.0014H38.1958L38.1195 30.7694H38.0879C37.6384 31.634 36.7229 32.1775 35.6241 32.1775C33.8278 32.1775 32.402 30.5936 32.402 28.1932C32.3862 25.5845 33.9664 24.0319 35.7789 24.0319C36.8166 24.0319 37.5609 24.4806 37.9011 25.0571H37.9326V21.0771H39.8385ZM37.9326 27.4559C37.9326 27.2975 37.9166 27.1046 37.8868 26.945C37.7161 26.1769 37.1115 25.5524 36.2439 25.5524C35.02 25.5524 34.3382 26.6732 34.3382 28.1294C34.3382 29.5532 35.02 30.5936 36.2284 30.5936C37.0027 30.5936 37.6848 30.0497 37.8705 29.2018C37.9166 29.025 37.9326 28.8332 37.9326 28.6244V27.4559Z" fill="white"/>
<path fill-rule="evenodd" clip-rule="evenodd" d="M41.1849 32.0012H43.1079V24.209H41.1849V32.0012Z" fill="white"/>
<path fill-rule="evenodd" clip-rule="evenodd" d="M44.4546 26.7202C44.4546 25.6645 44.4385 24.9113 44.3922 24.2079H46.0503L46.1109 25.6957H46.1752C46.5464 24.5915 47.4296 24.2079 48.2349 24.2079C48.4204 24.2079 48.5287 24.1751 48.6841 24.2079V25.9367C48.5287 25.9047 48.3587 25.8728 48.1263 25.8728C47.2124 25.8728 46.5922 26.4803 46.4219 27.3599C46.3918 27.536 46.3605 27.7449 46.3605 27.97V32.0011H44.4546V26.7202Z" fill="white"/>
<path fill-rule="evenodd" clip-rule="evenodd" d="M49.5673 32.0012H51.4874V24.209H49.5673V32.0012Z" fill="white"/>
<path fill-rule="evenodd" clip-rule="evenodd" d="M49.113 14.7875C47.9595 15.4774 45.239 17.0891 44.2234 17.6892C43.6045 18.0149 42.171 18.1571 41.3602 17.0279C41.3456 17.0075 40.2818 15.6344 40.2383 15.5827C40.2079 15.5462 39.5201 14.4925 37.9875 14.4595C37.7611 14.454 36.6353 14.4478 35.5369 15.0926C34.0768 15.9543 30.6811 17.9595 30.6811 17.9595C30.6802 17.9595 30.6802 17.9613 30.6784 17.9613C29.2826 18.7862 28.1951 19.4285 28.1951 19.4285L29.48 21.0586C30.0811 21.8295 31.4366 22.4259 32.6122 21.7289C32.6122 21.7289 36.9557 19.1308 36.9716 19.1233C38.8501 18.0591 40.2996 18.0591 41.2616 18.4551C42.1252 18.832 42.8764 19.7711 42.8764 19.7711C42.8764 19.7711 43.8582 21.0279 44.0314 21.2477C44.5901 21.958 45.5147 21.679 45.5147 21.679C45.5147 21.679 45.8573 21.6388 46.3738 21.3221C46.3738 21.3221 50.5811 18.8023 50.5838 18.8015C51.9197 17.9919 53.145 17.8407 53.7712 17.9003C55.7325 18.0844 56.3419 19.4997 57.1923 20.4871C57.6931 21.0679 58.145 21.3976 58.8361 21.381C59.2902 21.371 59.8032 21.0866 59.8789 21.0352L64.917 18.0321C64.917 18.0321 64.4 17.2278 63.3413 15.9766C62.3938 14.8602 61.3874 15.3653 60.585 15.7758C60.2479 15.9481 59.0264 16.7873 57.8163 17.3728C56.954 17.7899 55.7155 17.6644 55.0367 16.7981C54.9961 16.7454 53.898 15.3722 53.7825 15.2032C53.3393 14.6298 52.4745 14.1162 51.3663 14.1162C50.6924 14.1162 49.9277 14.3061 49.113 14.7875Z" fill="url(#paint0_linear_9047_79842)"/>
<defs>
<linearGradient id="paint0_linear_9047_79842" x1="28.1951" y1="22.0376" x2="64.917" y2="22.0376" gradientUnits="userSpaceOnUse">
<stop stop-color="#FFCA06"/>
<stop offset="0.330844" stop-color="#FBAA18"/>
<stop offset="0.694742" stop-color="#FFC907"/>
<stop offset="1" stop-color="#FAA619"/>
</linearGradient>
</defs>
</svg>
