<svg width="70" height="51" viewBox="0 0 70 51" fill="none" xmlns="http://www.w3.org/2000/svg">
<rect y="0.0478516" width="70" height="50" rx="4" fill="white"/>
<mask id="mask0_9047_79787" style="mask-type:alpha" maskUnits="userSpaceOnUse" x="0" y="0" width="70" height="51">
<rect y="0.0478516" width="70" height="50" rx="4" fill="white"/>
</mask>
<g mask="url(#mask0_9047_79787)">
<path fill-rule="evenodd" clip-rule="evenodd" d="M25.0235 14.2371L25 14.6922L33.8029 24.9272L34.1191 24.9775L34.1589 24.9577L34.3134 24.6749L30.5591 12.2205L29.922 11.7949L25.0235 14.2371Z" fill="#0096B8"/>
<path fill-rule="evenodd" clip-rule="evenodd" d="M33.8027 24.9274L34.1186 24.9777L27.6269 15.1892L24.9999 14.6924L33.8027 24.9274Z" fill="#005675"/>
<path fill-rule="evenodd" clip-rule="evenodd" d="M29.922 11.7949L27.6779 14.4134L28.5943 14.8104L30.5592 12.221V12.2205L29.922 11.7949Z" fill="#0BBBEF"/>
<path fill-rule="evenodd" clip-rule="evenodd" d="M28.5935 14.8107L34.159 24.9579L34.3135 24.6743L30.5597 12.2217L28.5935 14.8107Z" fill="#007290"/>
<path fill-rule="evenodd" clip-rule="evenodd" d="M38.6545 11.8214L34.8896 28.6641L35.0224 28.9801L35.0855 29.0082L35.5118 28.8976L44.8532 14.8733L44.8428 14.1417L39.1503 11.5479L38.6545 11.8214Z" fill="#81B73E"/>
<path fill-rule="evenodd" clip-rule="evenodd" d="M41.0611 15.1935L35.0862 29.0079L35.5115 28.8973L44.8532 14.873L41.0611 15.1935Z" fill="#69931D"/>
<path fill-rule="evenodd" clip-rule="evenodd" d="M34.8893 28.6636L35.0225 28.9797L39.9864 14.6078L38.6541 11.8223L34.8893 28.6636Z" fill="#277933"/>
<path fill-rule="evenodd" clip-rule="evenodd" d="M44.8423 14.1426L40.8461 14.1938L41.0615 15.1944L44.8531 14.8738L44.8428 14.1426H44.8423Z" fill="#AECC53"/>
<path fill-rule="evenodd" clip-rule="evenodd" d="M38.6545 11.8218L39.9855 14.6068L40.8462 14.1938L39.1504 11.5488L38.6545 11.8218Z" fill="#69931D"/>
<path fill-rule="evenodd" clip-rule="evenodd" d="M37.9699 7.04785L30.6828 7.12561L30.4556 7.55799L34.4819 19.0599L34.7211 19.2193L34.7281 19.2204L34.9499 19.0934L38.4408 7.53185L37.9699 7.04785Z" fill="#E4032E"/>
<path fill-rule="evenodd" clip-rule="evenodd" d="M30.4557 7.55805L34.4821 19.0599L34.7199 19.2196L33.2794 8.95059L30.4557 7.55762V7.55805Z" fill="#791B15"/>
<path fill-rule="evenodd" clip-rule="evenodd" d="M34.6493 8.95264L34.728 19.2205L34.9497 19.0927L38.4405 7.53223L34.6493 8.95264Z" fill="#B51227"/>
<path fill-rule="evenodd" clip-rule="evenodd" d="M43.6985 38.0851C43.7043 37.9646 43.7112 37.7722 43.717 37.5093V32.451L43.7014 31.9604C43.6976 31.8564 43.6929 31.7855 43.6878 31.7476C43.6827 31.7082 43.6747 31.6745 43.6639 31.6438C43.6274 31.5192 43.5477 31.431 43.4279 31.3775C43.3169 31.3286 43.1527 31.305 42.9401 31.3034V31.1318L45.6888 31.1309C46.0887 31.1326 46.4494 31.1594 46.7715 31.2145C47.0938 31.268 47.3532 31.3427 47.5519 31.4381C48.1262 31.7248 48.4102 32.207 48.407 32.892C48.414 33.8728 47.8004 34.4981 46.5303 34.6596L46.3173 34.6958C46.603 34.7069 46.9889 34.8061 47.1689 34.8503C47.3473 34.8935 47.522 34.9621 47.6937 35.0558C48.3674 35.4118 48.6995 35.9804 48.6928 36.7682C48.6961 37.7236 48.2529 38.3442 47.3529 38.6379C47.1566 38.6971 46.9097 38.7434 46.6118 38.7775C46.3126 38.8114 45.9885 38.8286 45.6379 38.8293H42.9401V38.657C43.258 38.6528 43.4764 38.6017 43.5732 38.4821C43.6133 38.4419 43.6421 38.397 43.661 38.3457C43.6804 38.2939 43.6921 38.2048 43.6985 38.0851ZM44.5447 31.368V34.5777H45.6174C46.8647 34.5699 47.5108 34.0257 47.5175 32.9354C47.5263 31.8768 46.8459 31.3602 45.5255 31.368H44.5447ZM47.7326 36.6815C47.725 35.9341 47.468 35.4048 46.9546 35.1086C46.7986 35.0257 46.6008 34.9613 46.3628 34.9154C46.1255 34.8699 45.863 34.847 45.5764 34.8463H44.5447V38.5931H45.5764C46.324 38.5964 46.8705 38.4497 47.2071 38.1427C47.3773 37.9945 47.507 37.795 47.5969 37.5438C47.6864 37.2928 47.731 37.0044 47.7326 36.6815Z" fill="black"/>
<path fill-rule="evenodd" clip-rule="evenodd" d="M52.6273 38.6099C52.5714 38.4941 52.5321 38.3562 52.5156 38.0033L52.5104 37.8995L52.4444 37.9783C52.3657 38.0703 52.2885 38.1522 52.2136 38.2208C52.1375 38.2899 52.0492 38.361 51.9506 38.4326C51.7338 38.6004 51.5246 38.7185 51.3243 38.7871C51.1236 38.8557 50.898 38.8888 50.6462 38.8863C50.2077 38.8888 49.8711 38.7793 49.6305 38.5642C49.4964 38.4374 49.3904 38.2776 49.3128 38.0837C49.2363 37.8899 49.1966 37.6821 49.1949 37.4583C49.1997 36.6345 49.6807 36.1037 50.6654 35.868C50.9257 35.8044 51.2009 35.7522 51.4904 35.712C51.7802 35.6711 52.1097 35.6374 52.4774 35.6113L52.5156 34.893C52.5156 34.6473 52.5047 34.4479 52.4819 34.2966C52.4591 34.1433 52.4212 34.0094 52.3679 33.8966C52.2221 33.5974 51.9241 33.4541 51.494 33.4541C50.8035 33.4499 50.4296 33.7959 50.3906 34.4818C50.387 34.5913 50.3772 34.6686 50.3632 34.7141C50.3502 34.7583 50.3277 34.7905 50.2962 34.8141C50.2273 34.8631 50.1178 34.8907 49.9612 34.893C49.6224 34.8978 49.4957 34.7922 49.5013 34.6141C49.5035 34.4282 49.5624 34.248 49.68 34.0745C49.7986 33.9004 49.963 33.7486 50.1756 33.6202C50.5577 33.3974 51.0472 33.2839 51.6473 33.2814C52.3043 33.2839 52.7447 33.4397 52.9853 33.7391C53.0828 33.8644 53.1549 34.0202 53.2015 34.2086C53.2487 34.396 53.2724 34.6347 53.272 34.9244L53.2711 34.9852L53.2659 35.2663L53.2516 36.0084L53.2412 37.0282L53.2311 37.5221C53.2322 37.7545 53.2412 37.9317 53.257 38.1301C53.2717 38.3231 53.3375 38.5389 53.4847 38.5957C53.6377 38.6555 53.7854 38.6791 54.0664 38.6808C54.2727 38.677 54.4314 38.6517 54.5391 38.6037C54.6617 38.5494 54.7374 38.4326 54.7702 38.2673C54.8018 38.1065 54.8152 37.8608 54.8123 37.5324V34.6536C54.819 34.2614 54.7757 33.9858 54.6696 33.8416C54.5656 33.7014 54.3723 33.6406 54.107 33.6439V33.4901L55.5687 33.3791V34.6023L55.6449 34.4591C55.8609 34.0549 56.1064 33.7682 56.3799 33.5966C56.6529 33.4248 56.9951 33.3389 57.4073 33.3439C58.0276 33.3343 58.4589 33.5524 58.7114 33.9888C58.8044 34.1353 58.8714 34.3109 58.9117 34.5174C58.9517 34.7237 58.9724 34.9869 58.9708 35.308V37.5324C58.9672 37.864 58.9802 38.1113 59.0107 38.272C59.0422 38.4374 59.1163 38.5532 59.2396 38.6059C59.3418 38.6509 59.5793 38.6745 59.7816 38.6799C59.9716 38.6745 60.118 38.6492 60.2186 38.6037C60.3381 38.5484 60.4108 38.4319 60.4414 38.2673C60.4713 38.1059 60.4844 37.8608 60.4804 37.5324V32.3025C60.4844 32.0025 60.4722 31.7804 60.4438 31.637C60.4139 31.4871 60.3404 31.3848 60.2204 31.3399C60.1162 31.3014 59.96 31.2833 59.7549 31.2823V31.1298L61.2751 31.0479C61.256 31.4029 61.2417 31.7652 61.2316 32.1362C61.2218 32.5229 61.2167 32.8608 61.2167 33.1499V36.6635L62.8911 34.7355C63.128 34.4599 63.2578 34.2282 63.2598 34.0425C63.2716 33.784 63.0238 33.6675 62.6159 33.6461V33.4934H64.7924V33.6484C64.6617 33.6642 64.5481 33.6896 64.4511 33.7242C64.3459 33.7619 64.2381 33.8162 64.1279 33.8863C64.0162 33.9572 63.9221 34.0227 63.8465 34.0818C63.7693 34.1423 63.6781 34.229 63.5737 34.3408C63.4691 34.4528 63.3169 34.6221 63.1175 34.8498L62.565 35.4751L64.0117 37.8673C64.177 38.1507 64.3289 38.3507 64.4685 38.464C64.6017 38.573 64.7717 38.6429 64.9764 38.676V38.832H63.653C63.6167 38.7549 63.5665 38.6539 63.5027 38.5303L63.2922 38.1263L63.1309 37.8221L62.0605 35.9886L61.2189 36.9787L61.2167 37.5324C61.2127 37.8608 61.2256 38.1065 61.256 38.2673C61.287 38.4326 61.3606 38.5484 61.4821 38.6037C61.5885 38.6517 61.7462 38.677 61.9517 38.6808V38.832H57.4789V38.6808C57.7818 38.672 57.9901 38.6202 58.0733 38.5035C58.1067 38.4587 58.132 38.4075 58.1502 38.3499C58.1676 38.2924 58.1786 38.2176 58.1837 38.1263C58.1897 38.0545 58.1959 37.9505 58.2026 37.8143C58.2102 37.6774 58.2138 37.5835 58.2145 37.5332V35.3726C58.2165 34.8402 58.1621 34.4458 58.0474 34.1951C57.8727 33.8006 57.558 33.6029 57.1115 33.6012C56.6134 33.5997 56.2166 33.8486 55.9224 34.3408C55.8114 34.5269 55.7253 34.7387 55.663 34.9749C55.6015 35.2111 55.5693 35.4444 55.5687 35.6728V37.5324C55.5649 37.864 55.578 38.1113 55.6082 38.272C55.6398 38.4374 55.7139 38.5532 55.8374 38.6059C55.9452 38.6532 56.1053 38.677 56.3145 38.6808V38.832H54.1144C53.9195 38.8391 53.5474 38.8494 53.3634 38.8469C53.17 38.8439 53.077 38.8225 52.901 38.8084C52.7447 38.7602 52.6789 38.7178 52.6273 38.6099ZM50.0331 37.4259C50.0368 37.7766 50.1178 38.0608 50.2797 38.2751C50.4419 38.4909 50.661 38.6019 50.9319 38.6067C51.2054 38.6029 51.4644 38.5279 51.7057 38.3831C51.947 38.2374 52.1375 38.0427 52.2751 37.8018C52.359 37.648 52.4203 37.4505 52.4585 37.2101C52.4968 36.9722 52.5156 36.6755 52.5156 36.3202V35.7688C52.0255 35.8138 51.6749 35.8625 51.4206 35.9193C51.1639 35.976 50.9375 36.0572 50.7399 36.1642C50.2719 36.4084 50.0368 36.8322 50.0331 37.4259Z" fill="black"/>
<path fill-rule="evenodd" clip-rule="evenodd" d="M6.99251 35.589V37.5039C6.9887 37.8109 7.00556 38.0393 7.04272 38.1883C7.08042 38.337 7.16127 38.4355 7.28653 38.4835C7.41124 38.5315 7.60356 38.5593 7.86224 38.5639V38.8317H5V38.5639C5.24363 38.5593 5.42399 38.5315 5.54163 38.4835C5.65855 38.4355 5.73414 38.337 5.76876 38.1883C5.80302 38.0393 5.81879 37.8109 5.81517 37.5039V32.4692C5.81843 32.162 5.80338 31.9336 5.77021 31.7846C5.73686 31.6349 5.66381 31.5359 5.55215 31.4862C5.44012 31.4365 5.2681 31.4075 5.03607 31.3987V31.1309H7.76236C8.68139 31.1269 9.3548 31.2972 9.78224 31.642C10.2098 31.9871 10.4212 32.5298 10.4161 33.2726C10.4194 34.3155 10.0327 34.9982 9.25674 35.3212C9.05444 35.4039 8.79631 35.4692 8.4829 35.5165C8.16876 35.5637 7.82 35.5883 7.43625 35.589H6.99251ZM6.99251 35.2905H7.46381C8.02991 35.2881 8.44628 35.1481 8.71366 34.8683C8.85885 34.7067 8.96888 34.4942 9.04429 34.2319C9.11897 33.9704 9.15704 33.6711 9.1574 33.334C9.1545 32.066 8.62574 31.4311 7.57257 31.4294H6.99251V35.2905Z" fill="black"/>
<path fill-rule="evenodd" clip-rule="evenodd" d="M15.0241 35.9125H11.6942C11.6974 36.2858 11.7183 36.5991 11.7564 36.8521C11.7942 37.1043 11.8553 37.3349 11.9391 37.5443C12.2157 38.2218 12.6429 38.5605 13.2212 38.5605C13.5486 38.5582 13.8453 38.4572 14.112 38.2565C14.3781 38.0557 14.5997 37.7666 14.7761 37.3909L15.012 37.5548C14.7801 38.0399 14.4968 38.3959 14.1623 38.6235C13.8279 38.8504 13.42 38.9631 12.9381 38.9607C12.1802 38.9504 11.4828 38.6959 11.0463 38.1974C10.6095 37.6988 10.3869 37.0151 10.3782 36.1487C10.3869 35.2751 10.6022 34.5845 11.024 34.0755C11.4455 33.5669 12.1185 33.3069 12.844 33.2959C13.3263 33.2969 13.7922 33.4125 14.1228 33.6426C14.4535 33.8717 14.6973 34.2081 14.8544 34.6508C14.9057 34.7972 14.9449 34.9649 14.9712 35.1549C14.9976 35.3439 15.0154 35.5967 15.0241 35.9125ZM11.7034 35.6155H13.7866C13.7781 35.2988 13.7621 35.0437 13.7382 34.8508C13.7148 34.6569 13.6771 34.4845 13.6265 34.3325C13.4503 33.7938 13.1802 33.5268 12.8159 33.5313C12.4071 33.5355 12.1024 33.8363 11.9014 34.4348C11.8499 34.59 11.8089 34.7601 11.7774 34.9445C11.7462 35.1289 11.7214 35.3525 11.7034 35.6155Z" fill="black"/>
<path fill-rule="evenodd" clip-rule="evenodd" d="M15.2372 33.4424L17.0843 33.3085C17.0943 33.5024 17.1015 33.6645 17.1066 33.7961C17.1117 33.9285 17.114 34.0441 17.114 34.145V34.4546C17.5153 33.6835 18.0001 33.2944 18.5681 33.2881C18.8136 33.2928 19.0132 33.3683 19.1662 33.5132C19.3195 33.6589 19.3985 33.8456 19.4031 34.0727C19.3996 34.2616 19.3333 34.4128 19.2042 34.5269C19.0753 34.6403 18.9057 34.6995 18.6959 34.7018C18.4436 34.7104 18.2897 34.601 18.2341 34.3719C18.1976 34.23 18.1601 34.134 18.121 34.0828C18.0822 34.0315 18.0251 34.0079 17.9489 34.0104H17.9295C17.7361 34.0275 17.5529 34.189 17.379 34.4963C17.3007 34.649 17.2418 34.8176 17.2025 35.0026C17.1631 35.1877 17.1436 35.4012 17.1436 35.6424V37.5523C17.1396 37.8572 17.1539 38.0816 17.1858 38.2266C17.2175 38.3706 17.29 38.465 17.4024 38.5102C17.5153 38.5542 17.6906 38.5793 17.9295 38.5848V38.8323H15.198V38.5848C15.4206 38.5856 15.5857 38.5629 15.6927 38.5165C15.8004 38.47 15.8696 38.373 15.9015 38.2266C15.9338 38.0784 15.9479 37.854 15.945 37.5523V34.6917C15.9537 34.2662 15.9135 33.9898 15.8232 33.8622C15.7329 33.7346 15.5377 33.677 15.2372 33.6906V33.4424Z" fill="black"/>
<path fill-rule="evenodd" clip-rule="evenodd" d="M21.5978 33.3085L21.6077 34.3308C22.0056 33.6426 22.5755 33.2952 23.3175 33.2881C24.0719 33.2834 24.5372 33.6441 24.7125 34.3727C24.9257 33.9969 25.1697 33.722 25.4432 33.5479C25.7167 33.3723 26.0365 33.2857 26.4023 33.2881C26.9805 33.2912 27.4063 33.4914 27.6799 33.8866C27.7865 34.0371 27.863 34.2198 27.9081 34.4365C27.9538 34.6537 27.9759 34.935 27.9746 35.2809V37.5523C27.9712 37.854 27.9857 38.0784 28.0176 38.2257C28.0495 38.3731 28.1193 38.47 28.2262 38.5165C28.3339 38.563 28.4988 38.5857 28.7214 38.5841V38.8323H26.0584V38.5841C26.2714 38.5857 26.4295 38.563 26.5326 38.5165C26.6359 38.47 26.7032 38.3731 26.7336 38.2257C26.7652 38.0784 26.779 37.854 26.7761 37.5523V35.291C26.7784 34.7485 26.7146 34.3569 26.5857 34.1167C26.4565 33.8758 26.248 33.7582 25.9602 33.763C25.6147 33.7559 25.323 33.9451 25.0859 34.3308C24.8814 34.6523 24.7796 35.0005 24.781 35.3739V37.5523C24.7781 37.854 24.7921 38.0784 24.8233 38.2257C24.8548 38.3731 24.9228 38.47 25.0272 38.5165C25.132 38.563 25.292 38.5857 25.5085 38.5841V38.8323H22.875V38.5841C23.0878 38.5857 23.246 38.563 23.3494 38.5165C23.4525 38.47 23.5196 38.3731 23.5502 38.2257C23.5814 38.0784 23.5957 37.854 23.5921 37.5523V35.2809C23.5972 34.2584 23.332 33.7527 22.7963 33.763C22.4631 33.7756 22.1836 33.9419 21.9588 34.2609C21.7335 34.5807 21.6164 34.9792 21.6077 35.4563V37.5523C21.6046 37.8573 21.6184 38.0839 21.6496 38.2306C21.6806 38.3777 21.7475 38.4739 21.8506 38.5188C21.954 38.5638 22.1118 38.5857 22.325 38.5841V38.8323H19.662V38.5841C19.8849 38.5857 20.0494 38.5638 20.157 38.5188C20.2642 38.4739 20.334 38.3777 20.3659 38.2306C20.3979 38.0839 20.4123 37.8573 20.4086 37.5523V34.6822C20.4191 34.2617 20.3789 33.9899 20.2883 33.8655C20.198 33.7403 19.9959 33.6828 19.6819 33.6906V33.4424L21.5978 33.3085Z" fill="black"/>
<path fill-rule="evenodd" clip-rule="evenodd" d="M35.7071 33.7807V37.2291C35.7067 37.4535 35.7147 37.6394 35.7305 37.7866C35.7462 37.9339 35.7713 38.0575 35.8053 38.1582C35.8467 38.2735 35.9112 38.3655 35.9978 38.435C36.085 38.5034 36.1815 38.5388 36.2864 38.5403C36.4965 38.5373 36.7256 38.4301 36.9747 38.2207L37.1121 38.4781C36.7175 38.8262 36.269 38.9981 35.7662 38.9948C35.2238 38.9862 34.854 38.7963 34.6556 38.427C34.6168 38.3451 34.5865 38.2521 34.5649 38.1466C34.5439 38.0419 34.5287 37.9009 34.5203 37.7221C34.512 37.544 34.5078 37.3038 34.5082 37.0021V33.7807H33.9482V33.4712C34.1625 33.4624 34.3436 33.4152 34.4924 33.3293C34.6414 33.2428 34.771 33.1081 34.882 32.9238C34.9688 32.7836 35.0406 32.6276 35.0966 32.4567C35.153 32.2857 35.2024 32.0731 35.2454 31.8186L35.7368 31.7676C35.7303 31.9038 35.7243 32.0424 35.7201 32.1834C35.716 32.3236 35.7125 32.4929 35.7105 32.6904C35.7082 32.8881 35.7071 33.1419 35.7071 33.4499H36.8962V33.7807H35.7071Z" fill="black"/>
<path fill-rule="evenodd" clip-rule="evenodd" d="M33.9433 38.6137V38.8318C33.656 38.8516 33.5398 38.8516 33.2376 38.8516C32.9978 38.8516 32.7495 38.8474 32.5434 38.7665C32.4159 38.716 32.3449 38.6728 32.2497 38.568C32.1834 38.457 32.1411 38.4505 32.1199 38.1427C31.8662 38.4309 31.6022 38.6419 31.328 38.7783C31.053 38.9137 30.7572 38.9808 30.4399 38.9792C29.9683 38.9737 29.5994 38.8373 29.3329 38.5688C29.0666 38.3002 28.9316 37.9309 28.9265 37.4613C28.9249 36.5752 29.4489 36.0246 30.4985 35.8095C30.972 35.7128 31.5089 35.6474 32.1101 35.6128V34.9417C32.115 34.4044 32.0608 34.032 31.9481 33.8248C31.8348 33.6175 31.6334 33.5185 31.3437 33.528C31.0358 33.5208 30.8164 33.6381 30.6854 33.8785C30.6379 33.9619 30.6029 34.0564 30.581 34.1644C30.5592 34.2714 30.5414 34.4202 30.5282 34.6116C30.5204 34.796 30.4697 34.9267 30.3758 35.004C30.282 35.0819 30.133 35.1196 29.9288 35.1181C29.4734 35.1143 29.2443 34.9558 29.241 34.6431C29.2425 34.4604 29.2963 34.2855 29.4022 34.1202C29.5077 33.9539 29.6572 33.8082 29.8504 33.6823C30.2594 33.4177 30.7967 33.2869 31.4619 33.2901C32.1381 33.2869 32.6228 33.4278 32.9159 33.7137C33.048 33.8446 33.145 34.0114 33.207 34.2139C33.2692 34.4171 33.2996 34.6771 33.2989 34.9945L33.2889 35.8924L33.2793 36.7903C33.2714 37.085 33.2677 37.2707 33.2695 37.3478C33.2659 37.7206 33.2772 37.9922 33.3029 38.1632C33.3288 38.3349 33.3571 38.4105 33.464 38.5034C33.6517 38.6162 33.8126 38.613 33.9433 38.6137ZM32.1101 36.6461V35.8514C31.4066 35.9011 30.9076 36.0379 30.6129 36.261C30.3187 36.4846 30.1755 36.8328 30.1843 37.3063C30.1872 37.6779 30.2598 37.9726 30.4019 38.1907C30.5434 38.409 30.7365 38.52 30.9801 38.5246C31.1801 38.5231 31.3646 38.4625 31.5341 38.3427C31.7034 38.2238 31.8362 38.0568 31.9332 37.8434C31.9963 37.7128 32.0416 37.5535 32.0699 37.3644C32.0973 37.1754 32.1109 36.936 32.1101 36.6461Z" fill="black"/>
<path fill-rule="evenodd" clip-rule="evenodd" d="M42.4035 38.6139V38.832C42.116 38.8518 42 38.8526 41.6978 38.8526C41.4578 38.8526 41.21 38.8486 41.0033 38.7675C40.8759 38.7172 40.805 38.6745 40.71 38.5682C40.6435 38.4579 40.6011 38.4515 40.5801 38.1436C40.3263 38.4311 40.0624 38.6429 39.7879 38.7793C39.5131 38.9139 39.2171 38.9817 38.8999 38.9802C38.4282 38.9745 38.0595 38.8376 37.7931 38.5697C37.5268 38.3012 37.3917 37.9318 37.3865 37.4623C37.385 36.5762 37.9091 36.0257 38.9586 35.8107C39.4321 35.7137 39.969 35.6484 40.5701 35.6137V34.9427C40.575 34.4056 40.5208 34.033 40.408 33.825C40.2949 33.6177 40.0934 33.5195 39.8037 33.529C39.4959 33.5219 39.2764 33.6393 39.1453 33.8793C39.0978 33.9629 39.0629 34.0574 39.0411 34.1654C39.0193 34.2724 39.0016 34.4212 38.9885 34.6126C38.9806 34.7962 38.9298 34.9269 38.8357 35.005C38.7422 35.0829 38.5932 35.1206 38.3887 35.1191C37.9335 35.1153 37.7044 34.957 37.701 34.6442C37.7024 34.4614 37.7563 34.2865 37.8621 34.1212C37.9676 33.9551 38.1174 33.8092 38.3104 33.684C38.7195 33.4187 39.2568 33.2878 39.9219 33.2911C40.598 33.2878 41.0829 33.4288 41.376 33.7147C41.5082 33.8456 41.6051 34.0126 41.667 34.2149C41.729 34.4181 41.7598 34.6781 41.7589 34.9947L41.7491 35.8934L41.7395 36.7913C41.7315 37.0857 41.7279 37.2716 41.7295 37.3488C41.7261 37.7214 41.7373 37.9932 41.7629 38.1642C41.789 38.3358 41.8171 38.4116 41.9242 38.5044C42.1116 38.6172 42.2728 38.6132 42.4035 38.6139ZM40.5701 36.6473V35.8516C39.8666 35.9021 39.3677 36.0391 39.073 36.2619C38.7781 36.4857 38.6354 36.8337 38.6443 37.3073C38.6474 37.6791 38.7199 37.9736 38.8618 38.1916C39.0036 38.4099 39.1966 38.521 39.4401 38.5256C39.6402 38.524 39.8247 38.4635 39.9942 38.3436C40.1633 38.2248 40.2964 38.0577 40.393 37.8444C40.4564 37.7136 40.5018 37.5545 40.5297 37.3654C40.5574 37.1764 40.571 36.937 40.5701 36.6473Z" fill="black"/>
</g>
</svg>
