<svg width="70" height="29" viewBox="0 0 70 29" fill="none" xmlns="http://www.w3.org/2000/svg">
<g clip-path="url(#clip0_8150_370623)">
<path d="M67.1333 17.1905V14.7766V9.95238H60.4667H56.0233V7.53848H67.1333V2.71429H56.0233H49.3567V7.53848V9.95238V14.7766H56.0233H60.4667V17.1905H49.3567V22.0147H60.4667H67.1333V17.1905ZM68.89 15.6813V23.5238C68.89 23.683 68.83 23.8387 68.7267 23.9509C68.6233 24.063 68.48 24.1282 68.3333 24.1282H61.11V25.3333H69.4433C69.59 25.3333 69.7333 25.2682 69.8367 25.156C69.94 25.0438 70 24.8882 70 24.729V15.6813H68.89ZM8.89 0H0.556667C0.41 0 0.266667 0.0651429 0.163333 0.177333C0.06 0.289524 0 0.445143 0 0.604381V9.652H1.11V1.80952C1.11 1.65029 1.17 1.49467 1.27333 1.38248C1.37667 1.27029 1.52 1.20514 1.66667 1.20514H8.89V0ZM16.0233 28.0476H20.4667V17.1905H16.0233V28.0476ZM19.9133 2.71429H9.35667V7.53848H16.0233V14.7766H20.4667V3.31505C20.4667 3.15581 20.4067 3.00019 20.3033 2.888C20.2 2.77581 20.0567 2.71067 19.91 2.71067L19.9133 2.71429ZM7.13667 2.71429H3.24667C3.1 2.71429 2.95667 2.77943 2.85333 2.89162C2.75 3.00381 2.69 3.15943 2.69 3.31867V21.4139C2.69 21.5731 2.75 21.7288 2.85333 21.841C2.95667 21.9531 3.1 22.0183 3.24667 22.0183H13.8033V17.1941H7.13667V2.7179V2.71429ZM9.36 14.7766H13.8033V9.95238H9.36V14.7766ZM10.47 11.1575H12.6933V13.5714H10.47V11.1575ZM22.6933 2.71429V7.53848H36.0267V9.95238H27.1367H22.6933V14.7766V22.0147H27.1367V14.849L33.8033 22.0147H40.47L33.5133 14.7766H36.0233H40.4667V9.95238V7.53848V2.71429H36.0233H22.69H22.6933ZM42.6933 22.0147H47.1367V2.71429H42.6933V22.0147Z" fill="black"/>
</g>
<defs>
<clipPath id="clip0_8150_370623">
<rect width="70" height="28.0476" fill="white"/>
</clipPath>
</defs>
</svg>
