<svg width="70" height="50" viewBox="0 0 70 50" fill="none" xmlns="http://www.w3.org/2000/svg">
<rect width="70" height="50" rx="4" fill="#F0592C"/>
<path fill-rule="evenodd" clip-rule="evenodd" d="M31.6604 13.7126L30.8362 13.7128C30.0117 13.7132 29.1872 13.7136 28.3621 13.7105L28.326 13.711C28.0472 13.7145 27.7261 13.7186 27.5344 13.9514C27.3405 14.1613 27.357 14.4598 27.3718 14.7283L27.3752 14.7913C27.4999 16.4537 27.6209 18.1164 27.742 19.7793L27.742 19.7794C27.8262 20.935 27.9103 22.0906 27.9957 23.2463C28.0046 23.3629 28.0113 23.481 28.018 23.5998C28.0518 24.1996 28.0865 24.8161 28.4213 25.3323C28.7213 25.8343 29.3061 26.116 29.8837 26.0966C31.4684 26.0981 33.0534 26.0977 34.6385 26.0973H34.6386C36.4219 26.0969 38.2054 26.0965 39.9889 26.0987C40.4053 26.1099 40.8349 26.0129 41.1656 25.7486C41.6728 25.3486 41.9003 24.6934 41.9514 24.0678L41.9602 23.9466L41.9603 23.9458C42.1624 21.1667 42.3647 18.3867 42.5719 15.6077C42.5782 15.4693 42.5899 15.3307 42.6017 15.192L42.6017 15.192L42.6017 15.1919C42.6278 14.8838 42.6539 14.5753 42.6208 14.2677C42.579 13.9381 42.2575 13.7003 41.931 13.7177C41.216 13.7092 40.5007 13.7108 39.7854 13.7124H39.7853C39.3 13.7135 38.8147 13.7146 38.3295 13.7126C38.255 12.2767 37.8529 10.7449 36.7916 9.71414C35.7946 8.72322 34.0148 8.7773 33.0524 9.79068C32.0625 10.8306 31.7298 12.3195 31.6604 13.7126ZM32.7911 17.5273C32.9208 16.6782 33.6535 15.9945 34.4903 15.8526C35.3731 15.6975 36.3375 15.873 37.0804 16.3843C37.2804 16.4914 37.2549 16.7935 37.0437 16.8741C36.8629 16.8494 36.7012 16.768 36.5391 16.6865C36.4275 16.6304 36.3158 16.5742 36.1977 16.5364C35.4904 16.2659 34.6261 16.1679 33.9719 16.6251C33.4259 16.9844 33.134 17.8028 33.5708 18.3559C34.0128 18.9281 34.6863 19.1496 35.3525 19.3688L35.3525 19.3688C35.6216 19.4573 35.8895 19.5454 36.1405 19.6561C36.7222 19.902 37.3059 20.2786 37.5703 20.8766C37.8948 21.6635 37.6978 22.685 36.9916 23.2014C36.2477 23.7474 35.2516 23.827 34.3699 23.6382C33.6678 23.4769 32.9504 23.1912 32.4687 22.634C32.4918 22.6122 32.516 22.5853 32.5413 22.5572C32.6497 22.4367 32.7783 22.2937 32.933 22.4319C33.6229 22.9054 34.4424 23.2228 35.2884 23.1932C35.8507 23.1545 36.4436 22.9708 36.8314 22.5411C37.1906 22.1482 37.2549 21.5237 36.9804 21.0665C36.6395 20.496 36.0027 20.197 35.4006 19.9816C35.3285 19.9584 35.2559 19.9355 35.1831 19.9125C34.5459 19.7111 33.8913 19.5043 33.3912 19.0428C32.9626 18.6733 32.7034 18.0957 32.7911 17.5273ZM35.4006 9.91315C34.6414 9.71823 33.8331 10.1183 33.4035 10.7469C32.8003 11.6082 32.6166 12.6818 32.5401 13.7095C34.177 13.7146 35.8139 13.7146 37.4498 13.7095C37.36 12.7798 37.1855 11.8338 36.7242 11.0112C36.4375 10.502 35.9844 10.0489 35.4006 9.91315Z" fill="white"/>
<path fill-rule="evenodd" clip-rule="evenodd" d="M8.11613 33.0381C8.62724 33.5261 9.28017 33.76 9.93247 33.9936C10.5895 34.2289 11.2459 34.4639 11.756 34.9583C12.2198 35.3497 12.2717 36.064 12.0083 36.5834C11.667 37.1641 10.949 37.3849 10.3127 37.4108C9.26078 37.4145 8.34803 36.8246 7.51134 36.255C7.48837 36.2742 7.46382 36.2941 7.43836 36.3147L7.43834 36.3148L7.43834 36.3148L7.43823 36.3148L7.43807 36.315L7.43803 36.315C7.16731 36.5346 6.79435 36.8371 7.13844 37.1659C8.50757 38.4219 10.8618 38.9432 12.396 37.6947C13.4925 36.8135 13.4461 35.0306 12.3868 34.1401C11.8766 33.6077 11.2041 33.3746 10.531 33.1413C9.97044 32.9471 9.40953 32.7526 8.94169 32.3851C8.16807 31.8508 8.52612 30.5021 9.40734 30.3036C10.3034 30.0031 11.2254 30.3333 12.0306 30.7303C12.5704 31.0327 12.9174 30.0773 12.4313 29.8305C11.3831 29.1348 9.93978 28.9196 8.77843 29.4521C7.45382 30.0198 7.00487 32.0549 8.11613 33.0381ZM13.9637 37.3032L13.9647 37.3975C13.9673 37.6713 13.97 37.9483 14.0249 38.2178C14.229 38.4776 14.7354 38.5091 14.9043 38.1974C15.0449 37.6979 15.0161 37.1554 14.9873 36.6141V36.6141V36.6141C14.9433 35.7844 14.8994 34.9577 15.4664 34.2941C16.0971 33.4574 17.7186 33.5242 18.0636 34.5872C18.1777 35.2143 18.1606 35.8515 18.1435 36.4891C18.128 37.0645 18.1125 37.6401 18.1935 38.2086C18.4681 38.5944 19.2417 38.4182 19.1545 37.8969C19.1638 36.8951 19.1712 35.8933 19.1638 34.8915C19.173 33.6838 18.0043 32.656 16.8188 32.7005C16.1454 32.6356 15.5406 32.9621 14.9803 33.2886C14.9797 32.9087 14.984 32.5285 14.9883 32.1481C14.9974 31.3284 15.0066 30.5081 14.9673 29.6895C14.9803 29.3797 14.7354 29.0959 14.4071 29.1775C14.0138 29.1423 13.9674 29.6005 13.9692 29.8899C13.966 30.9606 13.9673 32.0313 13.9687 33.102V33.1024C13.9704 34.5026 13.9721 35.9029 13.9637 37.3032ZM45.5278 38.6223C45.7377 38.6195 45.9476 38.6171 46.1577 38.6148C46.3655 38.6125 46.5735 38.6102 46.782 38.6074C46.8791 37.9847 46.9888 37.365 47.0985 36.7455L47.0985 36.7451C47.1627 36.3827 47.2268 36.0205 47.2884 35.6577C47.4492 35.655 47.6102 35.6545 47.7713 35.6539C48.2867 35.6522 48.8026 35.6504 49.3143 35.5798C50.7316 35.3627 51.9728 33.9787 51.739 32.5076C51.611 31.5948 50.7391 30.9566 49.8541 30.9158C49.32 30.8957 48.7859 30.8996 48.2518 30.9035C47.8027 30.9068 47.3535 30.9101 46.9044 30.8991C46.6402 32.3588 46.3814 33.8192 46.1226 35.2797L46.1217 35.2847C45.9246 36.3972 45.7274 37.5097 45.5278 38.6223ZM47.4999 34.4685C47.5859 34.0139 47.6677 33.5586 47.7494 33.1038C47.8104 32.7643 47.8714 32.425 47.934 32.0864C48.1485 32.0946 48.3658 32.088 48.5835 32.0814C49.055 32.0671 49.5285 32.0527 49.9803 32.1885C50.6982 32.5076 50.5962 33.5576 50.0842 34.0251C49.5778 34.526 48.8805 34.4989 48.204 34.4725C47.9635 34.4632 47.7257 34.4539 47.4999 34.4685ZM20.7704 37.4405C20.032 36.5723 19.8372 35.2421 20.4216 34.2403C20.8149 33.5353 21.5273 33.0511 22.2935 32.8285C23.7312 32.4092 25.3582 33.3795 25.7831 34.7913C25.9872 35.5909 25.9 36.4944 25.4176 37.1808C24.4418 38.7206 21.9132 38.856 20.7704 37.4405ZM24.7739 36.1864C25.31 34.8989 23.9186 33.463 22.607 33.8322C21.3084 34.001 20.6015 35.7226 21.505 36.7096C22.3399 37.8709 24.3379 37.537 24.7739 36.1864ZM27.4045 32.7988C27.0594 32.6541 26.7033 33.066 26.7682 33.4036C26.7548 34.5869 26.7572 35.7701 26.7596 36.9536V36.9538V36.9539V36.954V36.9541V36.9542V36.9546C26.7619 38.0643 26.7641 39.1742 26.7533 40.2845C26.7583 40.3681 26.758 40.4543 26.7577 40.5413C26.7566 40.8096 26.7555 41.0853 26.911 41.3123C27.2004 41.4292 27.7681 41.4737 27.7718 41.0359C27.8225 40.2903 27.8101 39.5421 27.7976 38.7944C27.7919 38.4462 27.7861 38.0981 27.7867 37.7503C29.1428 38.8152 31.434 38.6148 32.3041 37.0305C33.1927 35.6317 32.4914 33.6133 30.9702 33.0029C29.9554 32.4742 28.7236 32.771 27.8646 33.463C27.8291 33.3978 27.8041 33.3176 27.7785 33.2356C27.7145 33.0305 27.6471 32.8147 27.4045 32.7988ZM28.9814 33.9528C29.8626 33.5817 31.011 33.873 31.4525 34.7635C32.0425 35.6614 31.4637 36.9211 30.5064 37.2754C29.5473 37.7336 28.3117 37.1548 27.9926 36.1567C27.6327 35.3052 28.1781 34.3108 28.9814 33.9528ZM38.4169 37.947C37.3186 38.6297 35.7937 38.7224 34.6861 38.0045C33.1816 36.8802 33.2391 34.2644 34.7715 33.1921C35.9829 32.3276 37.9772 32.7395 38.5765 34.1513C38.7842 34.6614 38.9197 35.2588 38.7193 35.7931C38.5477 35.9134 38.3377 35.9188 38.1345 35.9241C38.0807 35.9255 38.0274 35.9269 37.9754 35.9304C37.5829 35.9323 37.1903 35.9304 36.7975 35.9286H36.7974H36.7973H36.7972H36.7971H36.7971C36.0575 35.9251 35.3176 35.9216 34.5785 35.9434C34.6099 36.0211 34.6398 36.1019 34.6701 36.1838C34.8277 36.6099 34.9958 37.0642 35.4393 37.2587C36.2556 37.6409 37.1943 37.4127 37.9921 37.0917C38.4651 36.8264 38.8826 37.7114 38.4169 37.947ZM37.0738 33.9528C36.6155 33.7635 36.0886 33.7598 35.6156 33.8915C35.206 34.0057 34.9953 34.3832 34.7993 34.7345C34.7627 34.8002 34.7266 34.8648 34.6898 34.9267C35.725 34.9434 36.7621 34.9416 37.7991 34.9267C37.7629 34.8586 37.7286 34.7873 37.6939 34.7154C37.5472 34.4113 37.3948 34.0953 37.0738 33.9528ZM40.7433 37.8987C41.8249 38.7391 43.4259 38.6445 44.5706 37.9785C45.0789 37.7169 44.6281 36.7485 44.1142 37.114C43.361 37.4257 42.4816 37.6075 41.7006 37.2939C41.2047 37.1005 41.0123 36.5977 40.8349 36.1342C40.8099 36.0689 40.7852 36.0043 40.76 35.9415C41.5202 35.9212 42.2804 35.9252 43.0405 35.9292C43.3935 35.931 43.7464 35.9328 44.0993 35.9322C44.158 35.9284 44.2185 35.9273 44.2798 35.9263C44.513 35.9222 44.7557 35.918 44.9379 35.7579C45.1457 34.9824 44.8693 34.1309 44.3702 33.5242C43.4649 32.5966 41.8546 32.4705 40.8342 33.2867C39.4818 34.3869 39.4206 36.7485 40.7433 37.8987ZM40.8862 34.9304C41.144 34.296 41.6746 33.7097 42.4278 33.8025C43.1773 33.7042 43.7895 34.2292 43.9806 34.9286C42.9491 34.9416 41.9176 34.9397 40.8862 34.9304ZM55.0097 34.1976C54.2398 33.6912 53.2899 34.1142 52.6592 34.6447L51.919 33.9936C52.5367 33.45 53.2788 33.0048 54.1211 32.9528C54.8427 32.9101 55.6924 32.9825 56.1989 33.5669C56.5773 33.9602 56.6386 34.5557 56.5514 35.0733C56.4115 35.9585 56.2498 36.8396 56.0881 37.7212L56.088 37.7216L56.0878 37.7225L56.0877 37.7235C56.0329 38.0217 55.9782 38.32 55.9243 38.6186C55.5236 38.6167 55.1229 38.6148 54.724 38.6148L54.865 37.9692C54.0914 38.7466 52.802 39.1157 51.8299 38.4887C50.9135 37.8728 51.112 36.461 51.8726 35.8005C52.8095 34.9212 54.225 34.9879 55.377 35.3274C55.364 35.2368 55.3594 35.1386 55.3547 35.0385C55.3395 34.7125 55.3234 34.3665 55.0097 34.1976ZM55.2026 36.3107C54.481 36.0213 53.5886 35.8246 52.8948 36.2866C52.4236 36.5853 52.2455 37.4034 52.8336 37.6817C53.8558 38.1269 54.9114 37.2754 55.2026 36.3107ZM57.6427 34.783C57.4979 34.2319 57.3531 33.6809 57.2062 33.1309H58.5624C58.7045 33.6985 58.8399 34.2676 58.9753 34.8369C59.1334 35.5013 59.2914 36.1659 59.4603 36.8283C59.9667 36.0573 60.4265 35.2588 60.8862 34.4603C61.1422 34.0156 61.3983 33.5709 61.6624 33.1309C62.1058 33.1309 62.5492 33.1327 62.9944 33.1346L63 33.1346C62.4108 34.0866 61.8255 35.041 61.2403 35.9955C60.2242 37.6526 59.208 39.3098 58.1709 40.9542C57.8901 40.9505 57.6093 40.9485 57.3285 40.9464C57.1882 40.9454 57.0479 40.9443 56.9076 40.9431C57.0983 40.6402 57.2912 40.3386 57.4841 40.037C57.856 39.4555 58.228 38.874 58.5847 38.2828C58.2569 37.1205 57.9497 35.9514 57.6427 34.783Z" fill="white"/>
</svg>
